<?xml version="1.0" encoding="utf-8"?>
<!-- Generator: Adobe Illustrator 22.0.1, SVG Export Plug-In . SVG Version: 6.00 Build 0)  -->
<svg version="1.1" id="Layer_1" xmlns="http://www.w3.org/2000/svg" xmlns:xlink="http://www.w3.org/1999/xlink" x="0px" y="0px"
	 viewBox="0 0 150 150" style="enable-background:new 0 0 150 150;" xml:space="preserve">
<style type="text/css">
	.st0{fill:#FFFFFF;}
	.st1{clip-path:url(#SVGID_2_);}
	.st2{fill:#E3338B;}
</style>
<g>
	<g>
		<circle class="st0" cx="75" cy="75" r="60"/>
	</g>
	<g>
		<defs>
			<circle id="SVGID_1_" cx="75" cy="75" r="60"/>
		</defs>
		<clipPath id="SVGID_2_">
			<use xlink:href="#SVGID_1_"  style="overflow:visible;"/>
		</clipPath>
		<g class="st1">
			<path class="st2" d="M82.5,73.5H36.6c-1,0-1.8,0.8-1.8,1.8s0.8,1.8,1.8,1.8h45.9c1,0,1.8-0.8,1.8-1.8S83.5,73.5,82.5,73.5"/>
			<path class="st2" d="M36.6,85.1h20.2c1,0,1.8-0.8,1.8-1.8c0-1-0.8-1.8-1.8-1.8H36.6c-1,0-1.8,0.8-1.8,1.8
				C34.8,84.3,35.6,85.1,36.6,85.1"/>
			<path class="st2" d="M36.6,93.1h20.2c1,0,1.8-0.8,1.8-1.8s-0.8-1.8-1.8-1.8H36.6c-1,0-1.8,0.8-1.8,1.8S35.6,93.1,36.6,93.1"/>
			<path class="st2" d="M36.6,101.2h20.2c1,0,1.8-0.8,1.8-1.8c0-1-0.8-1.8-1.8-1.8H36.6c-1,0-1.8,0.8-1.8,1.8
				C34.8,100.4,35.6,101.2,36.6,101.2"/>
			<path class="st2" d="M36.6,109.2h20.2c1,0,1.8-0.8,1.8-1.8c0-1-0.8-1.8-1.8-1.8H36.6c-1,0-1.8,0.8-1.8,1.8
				C34.8,108.4,35.6,109.2,36.6,109.2"/>
			<path class="st2" d="M70,113.7H36.6c-1,0-1.8,0.8-1.8,1.8c0,1,0.8,1.8,1.8,1.8H70c1,0,1.8-0.8,1.8-1.8
				C71.8,114.5,71,113.7,70,113.7"/>
			<path class="st2" d="M36.6,20.7h20.2c1,0,1.8-0.8,1.8-1.8c0-1-0.8-1.8-1.8-1.8H36.6c-1,0-1.8,0.8-1.8,1.8
				C34.8,19.9,35.6,20.7,36.6,20.7"/>
			<path class="st2" d="M36.6,28.8h20.2c1,0,1.8-0.8,1.8-1.8c0-1-0.8-1.8-1.8-1.8H36.6c-1,0-1.8,0.8-1.8,1.8
				C34.8,28,35.6,28.8,36.6,28.8"/>
			<path class="st2" d="M36.6,36.8H70c1,0,1.8-0.8,1.8-1.8c0-1-0.8-1.8-1.8-1.8H36.6c-1,0-1.8,0.8-1.8,1.8
				C34.8,36,35.6,36.8,36.6,36.8"/>
			<path class="st2" d="M36.6,44.8h20.2c1,0,1.8-0.8,1.8-1.8c0-1-0.8-1.8-1.8-1.8H36.6c-1,0-1.8,0.8-1.8,1.8
				C34.8,44,35.6,44.8,36.6,44.8"/>
			<path class="st2" d="M36.6,52.9h20.2c1,0,1.8-0.8,1.8-1.8c0-1-0.8-1.8-1.8-1.8H36.6c-1,0-1.8,0.8-1.8,1.8
				C34.8,52.1,35.6,52.9,36.6,52.9"/>
			<path class="st2" d="M36.6,60.9h20.2c1,0,1.8-0.8,1.8-1.8c0-1-0.8-1.8-1.8-1.8H36.6c-1,0-1.8,0.8-1.8,1.8
				C34.8,60.1,35.6,60.9,36.6,60.9"/>
			<path class="st2" d="M36.6,69h20.2c1,0,1.8-0.8,1.8-1.8c0-1-0.8-1.8-1.8-1.8H36.6c-1,0-1.8,0.8-1.8,1.8
				C34.8,68.2,35.6,69,36.6,69"/>
			<path class="st2" d="M36.6,125.3h20.2c1,0,1.8-0.8,1.8-1.8c0-1-0.8-1.8-1.8-1.8H36.6c-1,0-1.8,0.8-1.8,1.8
				C34.8,124.5,35.6,125.3,36.6,125.3"/>
			<path class="st2" d="M36.6,133.5h20.2c1,0,1.8-0.8,1.8-1.8c0-1-0.8-1.8-1.8-1.8H36.6c-1,0-1.8,0.8-1.8,1.8
				C34.8,132.7,35.6,133.5,36.6,133.5"/>
		</g>
	</g>
	<g>
		<path class="st2" d="M100.5,70.6c0,1-0.3,1.8-0.9,2.5c-0.6,0.7-1.4,1.2-2.5,1.4v0.1c1.3,0.2,2.2,0.5,2.9,1.2c0.7,0.6,1,1.4,1,2.5
			c0,1.5-0.5,2.7-1.6,3.5c-1.1,0.8-2.7,1.3-4.7,1.3c-1.7,0-3.2-0.3-4.5-0.9v-2.8c0.6,0.3,1.3,0.6,2,0.8s1.5,0.3,2.2,0.3
			c1.1,0,1.9-0.2,2.4-0.6c0.5-0.4,0.8-1,0.8-1.8c0-0.7-0.3-1.3-0.9-1.6C96,76.2,95.1,76,93.7,76h-1.2v-2.6h1.2
			c1.2,0,2.1-0.2,2.7-0.5c0.6-0.3,0.8-0.9,0.8-1.6c0-1.2-0.7-1.8-2.2-1.8c-0.5,0-1,0.1-1.6,0.3c-0.5,0.2-1.1,0.5-1.8,0.9l-1.5-2.3
			c1.4-1,3.1-1.6,5.1-1.6c1.6,0,2.9,0.3,3.9,1C100.1,68.5,100.5,69.4,100.5,70.6z"/>
		<path class="st2" d="M106.2,67.3c-0.4,1.4-1,3.1-1.9,5.2h-2.4c0.5-2.1,0.9-3.9,1.1-5.4h3L106.2,67.3z M111.2,67.3
			c-0.4,1.4-1,3.1-1.9,5.2H107c0.5-2.1,0.9-3.9,1.1-5.4h3L111.2,67.3z"/>
	</g>
</g>
</svg>
