<?xml version="1.0" encoding="utf-8"?>
<!-- Generator: Adobe Illustrator 22.0.1, SVG Export Plug-In . SVG Version: 6.00 Build 0)  -->
<svg version="1.1" id="Layer_1" xmlns="http://www.w3.org/2000/svg" xmlns:xlink="http://www.w3.org/1999/xlink" x="0px" y="0px"
	 viewBox="0 0 150 150" style="enable-background:new 0 0 150 150;" xml:space="preserve">
<style type="text/css">
	.st0{fill:#FFFFFF;}
	.st1{clip-path:url(#SVGID_2_);}
	.st2{fill:#E3338B;}
</style>
<g>
	<g>
		<circle class="st0" cx="75" cy="75" r="60"/>
	</g>
	<g>
		<defs>
			<circle id="SVGID_1_" cx="75" cy="75" r="60"/>
		</defs>
		<clipPath id="SVGID_2_">
			<use xlink:href="#SVGID_1_"  style="overflow:visible;"/>
		</clipPath>
		<g class="st1">
			<path class="st2" d="M82.5,73.5H36.6c-1,0-1.8,0.8-1.8,1.8s0.8,1.8,1.8,1.8h45.9c1,0,1.8-0.8,1.8-1.8S83.5,73.5,82.5,73.5"/>
			<path class="st2" d="M36.6,85.1h20.2c1,0,1.8-0.8,1.8-1.8c0-1-0.8-1.8-1.8-1.8H36.6c-1,0-1.8,0.8-1.8,1.8
				C34.8,84.3,35.6,85.1,36.6,85.1"/>
			<path class="st2" d="M36.6,93.1h20.2c1,0,1.8-0.8,1.8-1.8s-0.8-1.8-1.8-1.8H36.6c-1,0-1.8,0.8-1.8,1.8S35.6,93.1,36.6,93.1"/>
			<path class="st2" d="M36.6,101.2h20.2c1,0,1.8-0.8,1.8-1.8c0-1-0.8-1.8-1.8-1.8H36.6c-1,0-1.8,0.8-1.8,1.8
				C34.8,100.4,35.6,101.2,36.6,101.2"/>
			<path class="st2" d="M36.6,109.2h20.2c1,0,1.8-0.8,1.8-1.8c0-1-0.8-1.8-1.8-1.8H36.6c-1,0-1.8,0.8-1.8,1.8
				C34.8,108.4,35.6,109.2,36.6,109.2"/>
			<path class="st2" d="M70,113.7H36.6c-1,0-1.8,0.8-1.8,1.8c0,1,0.8,1.8,1.8,1.8H70c1,0,1.8-0.8,1.8-1.8
				C71.8,114.5,71,113.7,70,113.7"/>
			<path class="st2" d="M36.6,20.7h20.2c1,0,1.8-0.8,1.8-1.8c0-1-0.8-1.8-1.8-1.8H36.6c-1,0-1.8,0.8-1.8,1.8
				C34.8,19.9,35.6,20.7,36.6,20.7"/>
			<path class="st2" d="M36.6,28.8h20.2c1,0,1.8-0.8,1.8-1.8c0-1-0.8-1.8-1.8-1.8H36.6c-1,0-1.8,0.8-1.8,1.8
				C34.8,28,35.6,28.8,36.6,28.8"/>
			<path class="st2" d="M36.6,36.8H70c1,0,1.8-0.8,1.8-1.8c0-1-0.8-1.8-1.8-1.8H36.6c-1,0-1.8,0.8-1.8,1.8
				C34.8,36,35.6,36.8,36.6,36.8"/>
			<path class="st2" d="M36.6,44.8h20.2c1,0,1.8-0.8,1.8-1.8c0-1-0.8-1.8-1.8-1.8H36.6c-1,0-1.8,0.8-1.8,1.8
				C34.8,44,35.6,44.8,36.6,44.8"/>
			<path class="st2" d="M36.6,52.9h20.2c1,0,1.8-0.8,1.8-1.8c0-1-0.8-1.8-1.8-1.8H36.6c-1,0-1.8,0.8-1.8,1.8
				C34.8,52.1,35.6,52.9,36.6,52.9"/>
			<path class="st2" d="M36.6,60.9h20.2c1,0,1.8-0.8,1.8-1.8c0-1-0.8-1.8-1.8-1.8H36.6c-1,0-1.8,0.8-1.8,1.8
				C34.8,60.1,35.6,60.9,36.6,60.9"/>
			<path class="st2" d="M36.6,69h20.2c1,0,1.8-0.8,1.8-1.8c0-1-0.8-1.8-1.8-1.8H36.6c-1,0-1.8,0.8-1.8,1.8
				C34.8,68.2,35.6,69,36.6,69"/>
			<path class="st2" d="M36.6,125.3h20.2c1,0,1.8-0.8,1.8-1.8c0-1-0.8-1.8-1.8-1.8H36.6c-1,0-1.8,0.8-1.8,1.8
				C34.8,124.5,35.6,125.3,36.6,125.3"/>
			<path class="st2" d="M36.6,133.5h20.2c1,0,1.8-0.8,1.8-1.8c0-1-0.8-1.8-1.8-1.8H36.6c-1,0-1.8,0.8-1.8,1.8
				C34.8,132.7,35.6,133.5,36.6,133.5"/>
		</g>
	</g>
	<g>
		<path class="st2" d="M94.5,76.2h-4.2v-2.4h4.2v-4.2h2.4v4.2h4.2v2.4h-4.2v4.2h-2.4V76.2z"/>
		<path class="st2" d="M102.6,76.1c0-3.1,0.7-5.5,2-7c1.3-1.5,3.3-2.3,5.9-2.3c0.9,0,1.6,0.1,2.1,0.2v2.7c-0.6-0.1-1.3-0.2-1.9-0.2
			c-1.1,0-2.1,0.2-2.8,0.5c-0.7,0.3-1.3,0.9-1.6,1.5c-0.4,0.7-0.6,1.6-0.6,2.9h0.1c0.7-1.2,1.9-1.8,3.4-1.8c1.4,0,2.5,0.4,3.3,1.3
			c0.8,0.9,1.2,2.1,1.2,3.7c0,1.7-0.5,3-1.4,4s-2.3,1.5-4,1.5c-1.2,0-2.2-0.3-3.1-0.8c-0.9-0.5-1.5-1.3-2-2.4
			C102.8,78.8,102.6,77.6,102.6,76.1z M108.3,80.4c0.7,0,1.3-0.2,1.6-0.7c0.4-0.5,0.6-1.2,0.6-2c0-0.8-0.2-1.4-0.5-1.8
			c-0.4-0.4-0.9-0.7-1.6-0.7c-0.7,0-1.3,0.2-1.7,0.7c-0.5,0.4-0.7,1-0.7,1.5c0,0.9,0.2,1.6,0.7,2.2C107,80.1,107.6,80.4,108.3,80.4z
			"/>
		<path class="st2" d="M118.8,67.3c-0.4,1.4-1,3.1-1.9,5.2h-2.4c0.5-2.1,0.9-3.9,1.1-5.4h3L118.8,67.3z M123.9,67.3
			c-0.4,1.4-1,3.1-1.9,5.2h-2.4c0.5-2.1,0.9-3.9,1.1-5.4h3L123.9,67.3z"/>
	</g>
</g>
</svg>
