<?xml version="1.0" encoding="utf-8"?>
<!-- Generator: Adobe Illustrator 22.0.1, SVG Export Plug-In . SVG Version: 6.00 Build 0)  -->
<svg version="1.1" id="Layer_1" xmlns="http://www.w3.org/2000/svg" xmlns:xlink="http://www.w3.org/1999/xlink" x="0px" y="0px"
	 viewBox="0 0 750 1334" style="enable-background:new 0 0 750 1334;" xml:space="preserve">
<style type="text/css">
	.st0{opacity:0.25;}
	.st1{fill:#FFFFFF;}
</style>
<g class="st0">
	<path class="st1" d="M368,931c-70.5,0-136.8-27.5-186.7-77.3C131.5,803.8,104,737.5,104,667c0-70.5,27.5-136.8,77.3-186.7
		S297.5,403,368,403c70.5,0,136.8,27.5,186.7,77.3C604.5,530.2,632,596.5,632,667c0,70.5-27.5,136.8-77.3,186.7
		C504.8,903.5,438.5,931,368,931z M368,433c-62.5,0-121.3,24.3-165.5,68.5S134,604.5,134,667s24.3,121.3,68.5,165.5
		S305.5,901,368,901s121.3-24.3,165.5-68.5S602,729.5,602,667s-24.3-121.3-68.5-165.5S430.5,433,368,433z"/>
</g>
</svg>
