<?xml version="1.0" encoding="utf-8"?>
<!-- Generator: Adobe Illustrator 22.0.1, SVG Export Plug-In . SVG Version: 6.00 Build 0)  -->
<svg version="1.1" id="Layer_1" xmlns="http://www.w3.org/2000/svg" xmlns:xlink="http://www.w3.org/1999/xlink" x="0px" y="0px"
	 viewBox="0 0 750 1334" style="enable-background:new 0 0 750 1334;" xml:space="preserve">
<style type="text/css">
	.st0{fill:#FFFFFF;}
</style>
<g>
	<path class="st0" d="M375,810c-13.1,0-24.6-6.4-35.8-12.5c-5.2-2.8-10.1-5.5-15.1-7.6c-5.3-2.2-11-3.9-16.6-5.6
		c-12.2-3.6-24.8-7.4-33.6-16.2c-8.8-8.8-12.6-21.4-16.2-33.6c-1.7-5.6-3.4-11.3-5.6-16.6c-2.1-5-4.8-9.9-7.6-15.1
		c-6.1-11.2-12.5-22.8-12.5-35.8c0-13.1,6.4-24.6,12.5-35.8c2.8-5.2,5.5-10.1,7.6-15.1c2.2-5.3,3.9-11,5.6-16.6
		c3.6-12.2,7.4-24.8,16.2-33.6s21.4-12.6,33.6-16.2c5.6-1.7,11.4-3.4,16.6-5.6c5-2.1,9.9-4.8,15.1-7.6c11.2-6.1,22.8-12.5,35.8-12.5
		c13.1,0,24.6,6.4,35.8,12.5c5.2,2.8,10.1,5.5,15.1,7.6c5.3,2.2,11,3.9,16.6,5.6c12.2,3.6,24.8,7.4,33.6,16.2s12.6,21.4,16.2,33.6
		c1.7,5.6,3.4,11.3,5.6,16.6c2.1,5,4.8,9.9,7.6,15.1c6.1,11.2,12.5,22.8,12.5,35.8s-6.4,24.6-12.5,35.8c-2.8,5.2-5.5,10.1-7.6,15.1
		c-2.2,5.3-3.9,11-5.6,16.6c-3.6,12.2-7.4,24.8-16.2,33.6c-8.8,8.8-21.4,12.6-33.6,16.2c-5.6,1.7-11.3,3.4-16.6,5.6
		c-5,2.1-9.9,4.8-15.1,7.6C399.6,803.6,388.1,810,375,810z M375,527c-12.3,0-23.5,6.2-34.4,12.1c-5,2.8-10.2,5.6-15.4,7.7
		c-5.4,2.2-11.2,4-16.9,5.7c-11.8,3.5-24,7.2-32.3,15.5c-8.3,8.3-11.9,20.5-15.5,32.3c-1.7,5.7-3.4,11.5-5.7,16.9
		c-2.1,5.1-5,10.3-7.7,15.4c-6,10.9-12.1,22.1-12.1,34.4c0,12.3,6.2,23.5,12.1,34.4c2.8,5,5.6,10.2,7.7,15.4
		c2.2,5.4,4,11.2,5.7,16.9c3.5,11.8,7.2,24,15.5,32.3c8.3,8.3,20.5,11.9,32.3,15.5c5.7,1.7,11.5,3.4,16.9,5.7
		c5.1,2.1,10.3,5,15.4,7.7c10.9,6,22.1,12.1,34.4,12.1s23.5-6.2,34.4-12.1c5-2.8,10.2-5.6,15.4-7.7c5.4-2.2,11.2-4,16.9-5.7
		c11.8-3.5,24.1-7.2,32.3-15.5s11.9-20.5,15.5-32.3c1.7-5.7,3.4-11.5,5.7-16.9c2.1-5.2,5-10.3,7.7-15.4c6-10.9,12.1-22.1,12.1-34.4
		s-6.2-23.5-12.1-34.4c-2.8-5-5.6-10.2-7.7-15.4c-2.2-5.4-4-11.2-5.7-16.9c-3.5-11.8-7.2-24.1-15.5-32.3
		c-8.3-8.3-20.5-11.9-32.3-15.5c-5.7-1.7-11.5-3.4-16.9-5.7c-5.2-2.1-10.3-5-15.4-7.7C398.5,533.2,387.3,527,375,527z"/>
</g>
</svg>
