<?xml version="1.0" encoding="utf-8"?>
<!-- Generator: Adobe Illustrator 22.0.1, SVG Export Plug-In . SVG Version: 6.00 Build 0)  -->
<svg version="1.1" id="Layer_1" xmlns="http://www.w3.org/2000/svg" xmlns:xlink="http://www.w3.org/1999/xlink" x="0px" y="0px"
	 viewBox="0 0 750 1334" style="enable-background:new 0 0 750 1334;" xml:space="preserve">
<style type="text/css">
	.st0{fill:#FFFFFF;}
</style>
<g>
	<path class="st0" d="M375,848c-9.3,0-17.8-5.4-25.9-10.7c-5.9-3.8-11.5-7.4-17.3-9c-6.1-1.6-13.3-1.3-20.2-1
		c-9.5,0.4-19.3,0.9-27-3.6c-7.9-4.6-12.4-13.4-16.8-21.9c-3.1-6.1-6.4-12.4-10.8-16.8s-10.7-7.6-16.8-10.8
		c-8.5-4.4-17.3-8.9-21.9-16.8c-4.5-7.7-4-17.5-3.6-27c0.3-6.9,0.6-14.1-1-20.2c-1.6-5.8-5.2-11.4-9-17.3
		c-5.2-8.1-10.7-16.5-10.7-25.9s5.4-17.8,10.7-25.9c3.8-5.9,7.4-11.5,9-17.3c1.6-6.1,1.3-13.3,1-20.2c-0.4-9.5-0.9-19.3,3.6-27
		c4.6-7.9,13.4-12.4,21.9-16.8c6.1-3.1,12.4-6.4,16.8-10.8c4.4-4.4,7.6-10.7,10.8-16.8c4.4-8.5,8.9-17.3,16.8-21.9
		c7.7-4.5,17.5-4,27-3.6c6.9,0.3,14.1,0.6,20.2-1c5.8-1.6,11.4-5.2,17.3-9c8.1-5.2,16.5-10.7,25.9-10.7s17.8,5.4,25.9,10.7
		c5.9,3.8,11.5,7.4,17.3,9c6.1,1.6,13.3,1.3,20.2,1c9.5-0.4,19.3-0.9,27,3.6c7.9,4.6,12.4,13.4,16.8,21.9
		c3.1,6.1,6.4,12.4,10.8,16.8c4.4,4.4,10.7,7.6,16.8,10.8c8.5,4.4,17.3,8.9,21.9,16.8c4.5,7.7,4,17.5,3.6,27
		c-0.3,6.9-0.6,14.1,1,20.2c1.6,5.8,5.2,11.4,9,17.3c5.2,8.1,10.7,16.5,10.7,25.9c0,9.3-5.4,17.8-10.7,25.9
		c-3.8,5.9-7.4,11.5-9,17.3c-1.6,6.1-1.3,13.3-1,20.2c0.4,9.5,0.9,19.3-3.6,27c-4.6,7.9-13.4,12.4-21.9,16.8
		c-6.1,3.1-12.4,6.4-16.8,10.8s-7.6,10.7-10.8,16.8c-4.4,8.5-8.9,17.3-16.8,21.9c-7.7,4.5-17.5,4-27,3.6c-6.9-0.3-14.1-0.6-20.2,1
		c-5.8,1.6-11.4,5.2-17.3,9C392.8,842.6,384.3,848,375,848z M320,824.1c4.3,0,8.6,0.3,12.5,1.4c6.3,1.7,12.3,5.6,18.2,9.4
		c7.8,5,15.8,10.2,24.3,10.2s16.5-5.2,24.3-10.2c5.9-3.8,11.9-7.7,18.2-9.4c6.6-1.8,14-1.4,21.2-1.1c9.5,0.4,18.4,0.8,25.4-3.2
		c7.1-4.1,11.4-12.5,15.6-20.6c3.3-6.3,6.6-12.9,11.3-17.6c4.7-4.7,11.2-8.1,17.6-11.3c8.1-4.2,16.5-8.5,20.6-15.6
		c4-7,3.6-15.9,3.2-25.4c-0.3-7.2-0.7-14.6,1.1-21.2c1.7-6.3,5.6-12.3,9.4-18.2c5-7.8,10.2-15.8,10.2-24.3s-5.2-16.5-10.2-24.3
		c-3.8-5.9-7.7-11.9-9.4-18.2c-1.8-6.6-1.4-14-1.1-21.2c0.4-9.5,0.8-18.4-3.2-25.4c-4.1-7.1-12.5-11.4-20.6-15.6
		c-6.3-3.3-12.9-6.6-17.6-11.3c-4.7-4.7-8.1-11.2-11.3-17.6c-4.2-8.1-8.5-16.5-15.6-20.6c-7-4-15.9-3.6-25.4-3.2
		c-7.2,0.3-14.6,0.7-21.2-1.1c-6.3-1.7-12.3-5.6-18.2-9.4c-7.8-5-15.8-10.2-24.3-10.2s-16.5,5.2-24.3,10.2
		c-5.9,3.8-11.9,7.7-18.2,9.4c-6.6,1.8-14,1.4-21.2,1.1c-9.5-0.4-18.4-0.8-25.4,3.2c-7.1,4.1-11.4,12.5-15.6,20.6
		c-3.3,6.3-6.6,12.9-11.3,17.6s-11.2,8.1-17.6,11.3c-8.1,4.2-16.5,8.5-20.6,15.6c-4,7-3.6,15.9-3.2,25.4c0.3,7.2,0.7,14.6-1.1,21.2
		c-1.7,6.3-5.6,12.3-9.4,18.2c-5,7.8-10.2,15.8-10.2,24.3s5.2,16.5,10.2,24.3c3.8,5.9,7.7,11.9,9.4,18.2c1.8,6.6,1.4,14,1.1,21.2
		c-0.4,9.5-0.8,18.4,3.2,25.4c4.1,7.1,12.5,11.4,20.6,15.6c6.3,3.3,12.9,6.6,17.6,11.3c4.7,4.7,8.1,11.2,11.3,17.6
		c4.2,8.1,8.5,16.5,15.6,20.6c7,4,15.9,3.6,25.4,3.2C314.2,824.2,317.2,824.1,320,824.1z"/>
</g>
</svg>
