<?xml version="1.0" encoding="utf-8"?>
<!-- Generator: Adobe Illustrator 22.0.1, SVG Export Plug-In . SVG Version: 6.00 Build 0)  -->
<svg version="1.1" id="Layer_1" xmlns="http://www.w3.org/2000/svg" xmlns:xlink="http://www.w3.org/1999/xlink" x="0px" y="0px"
	 viewBox="0 0 750 1334" style="enable-background:new 0 0 750 1334;" xml:space="preserve">
<style type="text/css">
	.st0{opacity:5.000000e-02;}
	.st1{fill:#FFFFFF;}
</style>
<g class="st0">
	<g>
		<path class="st1" d="M423.1,1019.3c-12.4,0-23.6-2.7-33.1-5c-5.7-1.4-11.7-2.8-15-2.8s-9.2,1.4-15,2.8c-12.9,3.1-28.8,7-46.9,3.8
			c-18.5-3.2-32.4-12.5-43.6-19.9c-4.5-3-9.6-6.4-12.4-7.4c-3-1.1-9.2-1.8-14.8-2.4c-13.2-1.5-29.7-3.4-45.7-12.6
			c-16.1-9.3-26-22.7-33.9-33.5c-3.3-4.4-6.9-9.4-9.3-11.4c-2.3-2-7.9-4.8-12.9-7.2c-11.9-5.9-26.8-13.3-38.7-27.5
			C90,882,85.3,866.1,81.5,853.3c-1.6-5.3-3.3-11.3-4.9-14c-1.5-2.6-5.8-7.1-9.5-11c-9.2-9.7-20.8-21.7-27.2-39.3
			c-6.3-17.3-5.3-33.8-4.4-47.1c0.4-5.9,0.7-11.9,0.2-15.1c-0.5-2.8-2.9-8.4-5.1-13.3c-5.4-12.3-12.1-27.6-12.1-46.4
			s6.7-34.1,12.1-46.4c2.2-4.9,4.6-10.5,5.1-13.3c0.6-3.2,0.2-9.2-0.2-15.1c-0.8-13.3-1.9-29.8,4.4-47.1
			c6.4-17.6,17.9-29.6,27.2-39.3c3.8-4,8-8.4,9.5-11c1.6-2.7,3.3-8.7,4.9-14c3.8-12.8,8.5-28.7,20.4-42.9
			c11.9-14.2,26.8-21.6,38.7-27.5c4.9-2.5,10.5-5.2,12.9-7.2c2.3-1.9,6-7,9.3-11.4c7.9-10.8,17.8-24.1,33.9-33.5
			c16-9.3,32.5-11.1,45.7-12.6c5.5-0.6,11.8-1.3,14.8-2.4c2.7-1,7.9-4.4,12.4-7.4c11.2-7.4,25.1-16.7,43.6-19.9
			c18-3.2,34,0.7,46.9,3.8c5.7,1.4,11.7,2.8,15,2.8s9.2-1.4,15-2.8c12.8-3.1,28.8-7,46.9-3.8c18.5,3.2,32.4,12.5,43.6,19.9
			c4.5,3,9.6,6.4,12.4,7.4c3,1.1,9.2,1.8,14.8,2.4c13.2,1.5,29.7,3.4,45.7,12.6c16.1,9.3,26,22.7,33.9,33.5
			c3.3,4.4,6.9,9.4,9.3,11.4c2.3,2,7.9,4.8,12.9,7.2c11.9,5.9,26.8,13.3,38.7,27.5c11.9,14.2,16.6,30.1,20.4,42.9
			c1.6,5.3,3.3,11.3,4.9,14c1.5,2.6,5.8,7.1,9.5,11c9.2,9.7,20.8,21.7,27.2,39.3c6.3,17.3,5.3,33.8,4.4,47.1
			c-0.4,5.9-0.7,11.9-0.2,15.1c0.5,2.8,2.9,8.4,5.1,13.3c5.4,12.3,12.1,27.6,12.1,46.4c0,18.8-6.7,34.2-12.1,46.4
			c-2.2,4.9-4.6,10.5-5.1,13.3c-0.6,3.2-0.2,9.2,0.2,15.1c0.8,13.3,1.9,29.8-4.4,47.1c-6.4,17.6-17.9,29.6-27.2,39.3
			c-3.8,4-8,8.4-9.5,11c-1.6,2.7-3.3,8.7-4.9,14c-3.8,12.8-8.5,28.7-20.4,42.9c-11.9,14.2-26.8,21.6-38.7,27.5
			c-4.9,2.5-10.5,5.2-12.9,7.2c-2.3,1.9-6,7-9.3,11.4c-7.9,10.8-17.8,24.1-33.9,33.5c-16,9.3-32.5,11.1-45.7,12.6
			c-5.5,0.6-11.8,1.3-14.8,2.4c-2.7,1-7.9,4.4-12.4,7.4c-11.2,7.4-25.1,16.7-43.6,19.9C432.1,1019,427.5,1019.3,423.1,1019.3z
			 M375,931.5c12.8,0,24.5,2.8,33.8,5.1c4.7,1.1,11.8,2.9,14.3,2.7c2.6-0.7,8.8-4.9,13-7.7c7.8-5.2,17.6-11.7,29.3-16
			c11.9-4.3,23.7-5.7,33.1-6.7c4.9-0.6,12.2-1.4,14.6-2.4c2.1-1.6,6.5-7.6,9.5-11.6c5.6-7.6,12.6-17.1,22.3-25.2
			c9.7-8.1,20.3-13.4,28.8-17.6c4.4-2.2,11.1-5.5,13-7.3c1.4-2.2,3.5-9.3,4.9-14.1c2.7-9.1,6-20.5,12.4-31.4
			c6.3-10.9,14.4-19.4,20.9-26.2c3.5-3.6,8.6-9,9.8-11.4c0.6-2.6,0.1-9.9-0.2-14.7c-0.6-9.5-1.3-21.4,0.8-33.9
			c2.1-12.3,6.6-22.5,10.6-31.6c2.1-4.7,5.2-11.8,5.4-14.4c-0.2-2.6-3.3-9.7-5.4-14.4c-4-9.1-8.5-19.3-10.6-31.6
			c-2.2-12.5-1.4-24.4-0.8-33.9c0.3-4.9,0.8-12.2,0.2-14.7c-1.2-2.4-6.4-7.8-9.8-11.4c-6.5-6.8-14.6-15.3-20.9-26.2
			c-6.3-10.9-9.7-22.3-12.4-31.4c-1.4-4.7-3.5-11.9-4.9-14.1c-1.9-1.8-8.6-5.1-13-7.3c-8.5-4.2-19.1-9.5-28.8-17.6
			c-9.6-8.1-16.6-17.6-22.3-25.2c-2.9-4-7.4-10-9.5-11.6c-2.4-1-9.7-1.8-14.6-2.4c-9.5-1.1-21.2-2.4-33.1-6.7
			c-11.7-4.3-21.5-10.8-29.3-16c-4.2-2.8-10.5-7-13-7.7c-2.6-0.1-9.6,1.6-14.3,2.7c-9.3,2.3-21,5.1-33.8,5.1
			c-12.8,0-24.5-2.8-33.8-5.1c-4.7-1.1-11.8-2.8-14.3-2.7c-2.6,0.7-8.8,4.9-13,7.7c-7.8,5.2-17.6,11.7-29.3,16
			c-11.9,4.3-23.7,5.7-33.1,6.7c-4.9,0.6-12.2,1.4-14.6,2.4c-2.1,1.6-6.5,7.6-9.5,11.6c-5.6,7.6-12.6,17.1-22.3,25.2
			c-9.7,8.1-20.3,13.4-28.8,17.6c-4.4,2.2-11.1,5.5-13,7.3c-1.4,2.2-3.5,9.3-4.9,14.1c-2.7,9.1-6,20.5-12.4,31.4
			c-6.3,10.9-14.4,19.4-20.9,26.2c-3.5,3.6-8.6,9-9.8,11.4c-0.6,2.6-0.1,9.9,0.2,14.7c0.6,9.5,1.3,21.4-0.8,33.9
			c-2.1,12.3-6.6,22.5-10.6,31.6c-2.1,4.7-5.2,11.8-5.4,14.4c0.2,2.6,3.3,9.7,5.4,14.4c4,9.1,8.5,19.3,10.6,31.6
			c2.2,12.5,1.4,24.4,0.8,33.9c-0.3,4.9-0.8,12.2-0.2,14.7c1.2,2.4,6.4,7.8,9.8,11.4c6.5,6.8,14.6,15.3,20.9,26.2
			c6.3,11,9.7,22.3,12.4,31.4c1.4,4.7,3.5,11.9,4.9,14.1c1.9,1.8,8.6,5.1,13,7.3c8.5,4.2,19.1,9.5,28.8,17.6
			c9.6,8.1,16.6,17.6,22.3,25.2c2.9,4,7.4,10,9.5,11.6c2.4,1,9.7,1.8,14.6,2.4c9.5,1.1,21.2,2.4,33.1,6.7
			c11.7,4.3,21.5,10.8,29.3,16c4.2,2.8,10.5,7,13,7.7c2.6,0.1,9.6-1.6,14.3-2.7C350.5,934.3,362.2,931.5,375,931.5z M513.1,906.6
			C513.1,906.6,513.1,906.6,513.1,906.6C513.1,906.6,513.1,906.6,513.1,906.6z M236.9,906.6L236.9,906.6L236.9,906.6z M513.4,906.4
			L513.4,906.4L513.4,906.4z M236.6,906.4L236.6,906.4z M163.3,844.9L163.3,844.9L163.3,844.9z M586.7,844.9
			C586.7,844.9,586.7,844.9,586.7,844.9L586.7,844.9z M586.9,844.6L586.9,844.6L586.9,844.6z M163.1,844.6L163.1,844.6L163.1,844.6z
			 M163.1,844.6L163.1,844.6z M634.8,761.8L634.8,761.8L634.8,761.8z M115.2,761.8L115.2,761.8L115.2,761.8z M635,761.5
			C635,761.5,635,761.5,635,761.5S635,761.5,635,761.5z M115,761.5L115,761.5L115,761.5z M635,572.5L635,572.5
			C635,572.5,635,572.5,635,572.5z M634.8,572.2C634.8,572.2,634.8,572.2,634.8,572.2C634.8,572.2,634.8,572.2,634.8,572.2z
			 M586.9,489.4C586.9,489.4,586.9,489.4,586.9,489.4L586.9,489.4z M163.1,489.4C163.1,489.4,163.1,489.4,163.1,489.4
			C163.1,489.4,163.1,489.4,163.1,489.4z M163.3,489.1C163.3,489.1,163.3,489.1,163.3,489.1C163.3,489.1,163.3,489.1,163.3,489.1z
			 M513.1,427.4C513.1,427.4,513.1,427.4,513.1,427.4C513.1,427.4,513.1,427.4,513.1,427.4z M423,394.6
			C423,394.6,423,394.6,423,394.6C423,394.6,423,394.6,423,394.6z M327,394.6C327,394.6,327,394.6,327,394.6z"/>
	</g>
</g>
</svg>
