<?xml version="1.0" encoding="utf-8"?>
<!-- Generator: Adobe Illustrator 22.0.1, SVG Export Plug-In . SVG Version: 6.00 Build 0)  -->
<svg version="1.1" id="Layer_1" xmlns="http://www.w3.org/2000/svg" xmlns:xlink="http://www.w3.org/1999/xlink" x="0px" y="0px"
	 viewBox="0 0 750 1334" style="enable-background:new 0 0 750 1334;" xml:space="preserve">
<style type="text/css">
	.st0{opacity:0.2;}
	.st1{fill:#FFFFFF;}
</style>
<g class="st0">
	<g>
		<path class="st1" d="M431.8,1028.8c-9.3,0-19-2.8-28.4-5.5c-9.4-2.7-19.1-5.5-28.3-5.5c-9.3,0-18.9,2.8-28.3,5.5
			c-11.8,3.4-23.9,7-35.4,4.9c-12-2.1-22.4-9.7-32.4-17.1c-7.7-5.6-15.6-11.4-23.9-14.5c-8.5-3.1-18.5-3.8-28.1-4.4
			c-12.3-0.8-25.1-1.7-35.3-7.6c-10.4-6-17.5-16.7-24.4-27c-5.3-8-10.8-16.2-17.7-22c-6.9-5.8-16-9.8-24.8-13.7
			c-11.3-5-23.1-10.2-30.7-19.3c-7.6-9.1-10.7-21.5-13.7-33.5c-2.3-9.4-4.7-19-9.2-26.9c-4.5-7.7-11.6-14.5-18.5-21.1
			c-9-8.6-18.3-17.5-22.4-28.8c-4-11.1-2.6-23.7-1.3-36c1-9.6,2.1-19.6,0.6-28.6c-1.5-8.6-5.7-17-10-25.9
			c-5.5-11.2-11.2-22.8-11.2-35c0-12.2,5.7-23.8,11.2-35c4.4-8.9,8.5-17.3,10-25.9c1.6-9,0.5-19-0.6-28.6c-1.3-12.2-2.7-24.9,1.3-36
			c4.1-11.3,13.4-20.2,22.4-28.8c6.9-6.6,14-13.4,18.5-21.1c4.5-7.8,6.9-17.5,9.2-26.9c3-12,6-24.4,13.7-33.5
			c7.7-9.1,19.4-14.3,30.7-19.3c8.8-3.9,17.9-7.9,24.8-13.7c6.9-5.8,12.4-14,17.7-22c6.9-10.3,14-21,24.4-27
			c10.3-5.9,23-6.8,35.3-7.6c9.6-0.6,19.6-1.3,28.1-4.4c8.3-3,16.2-8.8,23.9-14.5c10.1-7.4,20.5-15,32.4-17.1
			c11.5-2,23.7,1.5,35.4,4.9c9.4,2.7,19.1,5.5,28.3,5.5c9.3,0,18.9-2.8,28.3-5.5c11.8-3.4,23.9-7,35.4-4.9
			c12,2.1,22.4,9.7,32.4,17.1c7.7,5.6,15.6,11.4,23.9,14.5c8.5,3.1,18.5,3.8,28.1,4.4c12.3,0.8,25.1,1.7,35.3,7.6
			c10.4,6,17.5,16.7,24.4,27c5.3,8,10.8,16.2,17.7,22c6.9,5.8,16,9.8,24.8,13.7c11.3,5,23.1,10.2,30.7,19.3
			c7.6,9.1,10.7,21.5,13.7,33.5c2.3,9.4,4.7,19,9.2,26.9c4.5,7.7,11.6,14.5,18.5,21.1c9,8.6,18.3,17.5,22.4,28.8
			c4,11.1,2.7,23.7,1.3,36c-1,9.6-2.1,19.6-0.6,28.6c1.5,8.6,5.7,17,10,25.9c5.5,11.2,11.2,22.8,11.2,35c0,12.2-5.7,23.8-11.2,35
			c-4.4,8.9-8.5,17.3-10,25.9c-1.6,9-0.5,19,0.6,28.6c1.3,12.2,2.7,24.9-1.3,36c-4.1,11.3-13.4,20.2-22.4,28.8
			c-6.9,6.6-14,13.4-18.5,21.1c-4.5,7.8-6.9,17.5-9.2,26.9c-3,12-6,24.4-13.7,33.5c-7.7,9.1-19.4,14.3-30.7,19.3
			c-8.8,3.9-17.9,7.9-24.8,13.7c-6.9,5.8-12.4,14-17.7,22c-6.9,10.3-14,21-24.4,27c-10.3,5.9-23,6.8-35.3,7.6
			c-9.6,0.6-19.6,1.3-28.1,4.4c-8.3,3-16.2,8.8-23.9,14.5c-10.1,7.4-20.5,15-32.4,17.1C436.5,1028.6,434.1,1028.8,431.8,1028.8z
			 M318.5,307.7c-2.2,0-4.4,0.2-6.6,0.6c-11.3,2-21.4,9.4-31.2,16.6c-7.8,5.7-15.9,11.7-24.7,14.9c-8.9,3.3-19.1,3.9-29,4.6
			c-12,0.8-24.4,1.6-34,7.2c-9.8,5.7-16.7,16-23.4,26.1c-5.4,8.1-11.1,16.6-18.3,22.6c-7.2,6.1-16.5,10.2-25.5,14.1
			c-11,4.9-22.4,9.9-29.6,18.5c-7.2,8.6-10.2,20.6-13.1,32.3c-2.4,9.6-4.8,19.4-9.5,27.6c-4.7,8.1-12,15.1-19,21.8
			c-8.7,8.4-17.8,17-21.7,27.7c-3.8,10.4-2.5,22.2-1.2,34.6c1.1,9.8,2.2,20,0.5,29.5c-1.6,9.1-6,18.1-10.3,26.7
			c-5.4,10.9-10.9,22.2-10.9,33.7c0,11.5,5.6,22.8,10.9,33.7c4.3,8.7,8.7,17.7,10.3,26.7c1.7,9.4,0.5,19.6-0.5,29.5
			c-1.4,12.4-2.6,24.2,1.2,34.6c3.9,10.7,12.9,19.3,21.7,27.7c7.1,6.7,14.3,13.7,19,21.8c4.7,8.2,7.2,18.1,9.5,27.6
			c2.9,11.7,5.9,23.7,13.1,32.3c7.2,8.6,18.6,13.6,29.6,18.5c9,4,18.3,8.1,25.5,14.1c7.2,6,12.8,14.5,18.3,22.6
			c6.7,10,13.6,20.4,23.4,26.1c9.6,5.6,22,6.4,34,7.2c9.8,0.7,20,1.3,29,4.6c8.7,3.2,16.8,9.1,24.7,14.9
			c9.8,7.2,19.9,14.6,31.2,16.6c10.8,1.9,22.1-1.4,34.1-4.9c9.6-2.8,19.5-5.7,29.2-5.7s19.6,2.9,29.2,5.7c12,3.5,23.3,6.8,34.1,4.9
			c11.3-2,21.4-9.4,31.2-16.6c7.8-5.7,15.9-11.7,24.7-14.9c8.9-3.3,19.1-3.9,29-4.6c12-0.8,24.4-1.6,34-7.2
			c9.8-5.7,16.7-16,23.4-26.1c5.4-8.2,11.1-16.6,18.3-22.6c7.2-6.1,16.5-10.2,25.5-14.1c11-4.9,22.4-9.9,29.6-18.5
			c7.2-8.6,10.2-20.6,13.1-32.3c2.4-9.6,4.8-19.4,9.5-27.6c4.7-8.1,12-15.1,19-21.8c8.7-8.4,17.8-17,21.7-27.7
			c3.8-10.4,2.5-22.2,1.2-34.6c-1.1-9.8-2.2-20-0.5-29.5c1.6-9.1,6-18.1,10.3-26.7c5.4-10.9,10.9-22.2,10.9-33.7
			c0-11.5-5.6-22.8-10.9-33.7c-4.3-8.7-8.7-17.7-10.3-26.7c-1.7-9.4-0.5-19.6,0.5-29.5c1.4-12.4,2.6-24.2-1.2-34.6
			c-3.9-10.7-12.9-19.3-21.7-27.7c-7.1-6.7-14.3-13.7-19-21.8c-4.7-8.2-7.2-18.1-9.5-27.6c-2.9-11.7-5.9-23.7-13.1-32.3
			c-7.2-8.6-18.6-13.6-29.6-18.5c-9-4-18.3-8.1-25.5-14.1c-7.2-6-12.8-14.5-18.3-22.6c-6.7-10-13.6-20.4-23.4-26.1
			c-9.6-5.6-22-6.4-34-7.2c-9.8-0.7-20-1.3-29-4.6c-8.7-3.2-16.8-9.1-24.7-14.9c-9.8-7.2-19.9-14.6-31.2-16.6
			c-10.8-1.9-22.1,1.4-34.1,4.9c-9.6,2.8-19.5,5.7-29.2,5.7c-9.7,0-19.6-2.9-29.2-5.7C336.4,310.3,327.3,307.7,318.5,307.7z"/>
	</g>
</g>
</svg>
