<?xml version="1.0" encoding="utf-8"?>
<!-- Generator: Adobe Illustrator 22.0.1, SVG Export Plug-In . SVG Version: 6.00 Build 0)  -->
<svg version="1.1" id="Layer_1" xmlns="http://www.w3.org/2000/svg" xmlns:xlink="http://www.w3.org/1999/xlink" x="0px" y="0px"
	 viewBox="0 0 750 1334" style="enable-background:new 0 0 750 1334;" xml:space="preserve">
<style type="text/css">
	.st0{fill:#FFFFFF;}
</style>
<g>
	<path class="st0" d="M375,991c-86.5,0-167.9-33.7-229.1-94.9S51,753.5,51,667c0-86.5,33.7-167.9,94.9-229.1S288.5,343,375,343
		c86.5,0,167.9,33.7,229.1,94.9S699,580.5,699,667c0,86.5-33.7,167.9-94.9,229.1S461.5,991,375,991z M375,346
		c-85.7,0-166.4,33.4-227,94S54,581.3,54,667s33.4,166.4,94,227s141.2,94,227,94s166.4-33.4,227-94s94-141.2,94-227
		s-33.4-166.4-94-227S460.7,346,375,346z"/>
</g>
</svg>
