<?xml version="1.0" encoding="utf-8"?>
<!-- Generator: Adobe Illustrator 22.0.1, SVG Export Plug-In . SVG Version: 6.00 Build 0)  -->
<svg version="1.1" id="Layer_1" xmlns="http://www.w3.org/2000/svg" xmlns:xlink="http://www.w3.org/1999/xlink" x="0px" y="0px"
	 viewBox="0 0 750 1334" style="enable-background:new 0 0 750 1334;" xml:space="preserve">
<style type="text/css">
	.st0{fill:#FFFFFF;}
</style>
<g>
	<path class="st0" d="M69.3,712.6C69.2,712.6,69.2,712.6,69.3,712.6c-8.4,0-16-15.3-22.9-45.4c-6.7-29.6-14.1-44.6-21.9-44.6
		c0,0,0,0,0,0c-13.3,0-23.9,44.2-24,44.7c-0.1,0.3-0.3,0.4-0.6,0.4c-0.3-0.1-0.4-0.3-0.4-0.6c0.4-1.9,10.9-45.5,25-45.5c0,0,0,0,0,0
		c8.3,0,16,15.3,22.8,45.4c6.7,29.6,14.1,44.6,21.9,44.6c0,0,0,0,0,0c13.3,0,23.9-44.2,24-44.7c0.4-1.9,10.9-45.4,25-45.4
		c0,0,0,0,0,0c8.3,0,16,15.3,22.8,45.4c6.7,29.6,14.1,44.6,21.9,44.6c0,0,0,0,0,0c13.3,0,23.9-44.2,24-44.7
		c0.4-1.9,10.9-45.4,25-45.4c0,0,0,0,0,0c8.3,0,16,15.3,22.9,45.4c6.7,29.6,14.1,44.6,21.9,44.6c0,0,0,0,0,0
		c13.3,0,23.9-44.2,24-44.7c0.2-0.9,5.1-21.8,11.8-21.8c0,0,0,0,0,0c3.9,0,7.4,6.7,10.5,20.5c3.8,16.6,7.3,20.1,9.7,20.1
		c0,0,0,0,0,0c4.8,0,9.3-14.5,10.6-20.1c0.2-0.9,5-20.9,11.6-20.9c0,0,0,0,0,0c4,0,7.5,6.8,10.7,20.9c3.8,16.6,7.3,20.1,9.7,20.1
		c0,0,0,0,0,0c4.8,0,9.3-14.5,10.6-20.1c0.2-0.9,5-20.9,11.6-20.9c0,0,0,0,0,0c4,0,7.5,6.8,10.7,20.9c3.8,16.6,7.3,20.1,9.7,20.1
		c0,0,0,0,0,0c4.8,0,9.3-14.5,10.6-20.1c0.2-0.9,5-20.9,11.6-20.9c0,0,0,0,0,0c4,0,7.5,6.8,10.7,20.9c3.8,16.6,7.3,20.1,9.7,20.1
		c0,0,0,0,0,0c4.8,0,9.3-14.5,10.6-20.1c0.2-0.9,5-20.9,11.6-20.9c0,0,0,0,0,0c4,0,7.5,6.8,10.7,20.9c3.8,16.6,7.3,20.1,9.7,20.1
		c0,0,0,0,0,0c4.8,0,9.3-14.5,10.6-20.1c0.2-0.8,4.9-20.9,11.5-20.9c0,0,0,0,0,0c3.9,0,7.4,6.8,10.6,20.9l0.2,1.3
		c6.7,29.6,14.1,44.6,21.9,44.6c0,0,0,0,0,0c13.3,0,23.9-44.2,24-44.7c0.4-1.9,10.9-45.4,25-45.4c0,0,0,0,0,0
		c8.3,0,16,15.3,22.8,45.4c6.7,29.6,14.1,44.6,21.9,44.6c0,0,0,0,0,0c13.3,0,23.9-44.2,24-44.7c0.4-1.9,10.9-45.4,25-45.4
		c0,0,0,0,0,0c8.3,0,16,15.3,22.9,45.4c6.7,29.6,14.1,44.6,21.9,44.6c0,0,0,0,0,0c13.3,0,23.9-44.2,24-44.7c0.1-0.3,0.3-0.4,0.6-0.4
		c0.3,0.1,0.4,0.3,0.4,0.6c-0.4,1.9-10.9,45.4-25,45.4c0,0,0,0,0,0c-8.3,0-16-15.3-22.8-45.4c-6.7-29.6-14.1-44.6-21.9-44.6
		c0,0,0,0,0,0c-13.3,0-23.9,44.2-24,44.7c-0.4,1.9-10.9,45.4-25,45.4c0,0,0,0,0,0c-8.3,0-16-15.3-22.8-45.4
		c-6.7-29.6-14.1-44.6-21.9-44.6c0,0,0,0,0,0c-13.3,0-23.9,44.2-24,44.7c-0.4,1.9-10.9,45.4-25,45.4c0,0,0,0,0,0
		c-8.3,0-16-15.3-22.9-45.4l-0.2-1.3c-3.8-16.6-7.3-20.1-9.6-20.1c0,0,0,0,0,0c-4.8,0-9.2,14.5-10.5,20.1c-0.2,0.9-5,20.9-11.6,20.9
		c0,0,0,0,0,0c-4,0-7.5-6.8-10.7-20.9c-3.8-16.6-7.3-20.1-9.7-20.1c0,0,0,0,0,0c-4.8,0-9.3,14.5-10.6,20.1
		c-0.2,0.9-5,20.9-11.6,20.9c0,0,0,0,0,0c-4,0-7.5-6.8-10.7-20.9c-3.8-16.6-7.3-20.1-9.7-20.1c0,0,0,0,0,0
		c-4.8,0-9.3,14.5-10.6,20.1c-0.2,0.9-5,20.9-11.6,20.9c0,0,0,0,0,0c-4,0-7.5-6.8-10.7-20.9c-3.8-16.6-7.3-20.1-9.7-20.1
		c0,0,0,0,0,0c-4.8,0-9.3,14.5-10.6,20.1c-0.2,0.9-5,20.9-11.6,20.9c0,0,0,0,0,0c-4,0-7.5-6.8-10.7-20.9
		c-3.8-16.6-7.3-20.1-9.7-20.1c0,0,0,0,0,0c-4.8,0-9.3,14.5-10.6,20.1c-0.2,0.9-5,20.9-11.6,20.9c0,0,0,0,0,0
		c-4,0-7.5-6.8-10.7-20.9c-3.7-16.3-7.2-19.8-9.5-19.8c0,0,0,0,0,0c-4.9,0-9.5,15.2-10.8,21c-0.4,1.9-10.9,45.4-25,45.4c0,0,0,0,0,0
		c-8.3,0-16-15.3-22.8-45.4c-6.7-29.6-14.1-44.6-21.9-44.6c0,0,0,0,0,0c-13.3,0-23.9,44.2-24,44.7c-0.4,1.9-10.9,45.4-25,45.4
		c0,0,0,0,0,0c-8.3,0-16-15.3-22.9-45.4c-6.7-29.6-14.1-44.6-21.9-44.6c0,0,0,0,0,0c-13.3,0-23.9,44.2-24,44.7
		C93.8,669,83.4,712.6,69.3,712.6z"/>
</g>
</svg>
