<?xml version="1.0" encoding="utf-8"?>
<!-- Generator: Adobe Illustrator 22.0.1, SVG Export Plug-In . SVG Version: 6.00 Build 0)  -->
<svg version="1.1" id="Layer_1" xmlns="http://www.w3.org/2000/svg" xmlns:xlink="http://www.w3.org/1999/xlink" x="0px" y="0px"
	 viewBox="0 0 800 1334" style="enable-background:new 0 0 800 1334;" xml:space="preserve">
<style type="text/css">
	.st0{fill:#FFFFFF;}
</style>
<g>
	<path class="st0" d="M188.3,722.1c-1.3,0-2.5-0.1-3.5-0.4c-12.5-2.6-21.2-18.3-29-52.5c-5.7-24.9-10.6-33.5-12.8-36.3
		c-4.4,4.8-11,21.1-14.6,36.4c-0.1,0.5-2.9,12.1-7.5,23.9c-4.8,12.4-12.9,28.9-26.8,28.9c0,0,0,0-0.1,0
		c-14.1-0.1-23.7-15.9-32.1-52.8c-5.7-24.9-10.6-33.5-12.8-36.3c-4.4,4.8-11,21.1-14.6,36.4l-2.3,9.7L13,674.5l2.3-9.7
		c0.1-0.5,2.9-12.1,7.5-23.9c4.8-12.4,12.9-28.9,26.8-28.9c0,0,0,0,0.1,0c14.1,0.1,23.7,15.9,32.1,52.8
		c5.7,24.9,10.6,33.5,12.8,36.3c4.4-4.8,10.9-20.8,14.6-36.4c0.1-0.5,2.9-12.1,7.5-23.9c4.8-12.4,12.9-28.9,26.8-28.9c0,0,0,0,0.1,0
		c14.1,0.1,23.7,15.9,32.1,52.8c6,26.4,11.2,34.5,13.2,36.8c2.4-2.1,9.5-10.3,18.8-40.7c6.4-20.6,10.4-40.7,10.4-40.9l1.6-8l410.4,0
		l2.3,6.7c0.2,0.5,4.3,12.4,11.9,46.1c5.7,24.9,10.6,33.5,12.8,36.3c4.4-4.8,11-21.1,14.6-36.4c0.1-0.5,2.9-12.1,7.5-23.9
		c4.8-12.4,12.9-28.9,26.8-28.9c0,0,0,0,0.1,0c14.1,0.1,23.7,15.9,32.1,52.8c5.7,24.9,10.6,33.5,12.8,36.3
		c4.4-4.8,11-21.1,14.6-36.4l2.3-9.7l19.5,4.6l-2.3,9.7c-0.1,0.5-2.9,12.1-7.5,23.9c-4.8,12.4-12.9,28.9-26.8,28.9c0,0,0,0-0.1,0
		c-14.1-0.1-23.7-15.9-32.1-52.8c-5.7-24.9-10.6-33.5-12.8-36.3c-4.4,4.8-10.9,20.8-14.6,36.4c-0.1,0.5-2.9,12.1-7.5,23.9
		c-4.8,12.4-12.9,28.9-26.8,28.9c0,0,0,0-0.1,0c-14.1-0.1-23.7-15.9-32.1-52.8c-4.3-18.9-7.4-30.7-9.3-37.3H235.7
		c-1.7,7.6-4.6,19.6-8.5,32.4c-12,39.9-21.8,50.1-28.2,54.4C195.1,721.3,191.4,722.1,188.3,722.1z"/>
</g>
</svg>
