<?xml version="1.0" encoding="utf-8"?>
<!-- Generator: Adobe Illustrator 22.0.1, SVG Export Plug-In . SVG Version: 6.00 Build 0)  -->
<svg version="1.1" id="Layer_1" xmlns="http://www.w3.org/2000/svg" xmlns:xlink="http://www.w3.org/1999/xlink" x="0px" y="0px"
	 viewBox="0 0 800 1334" style="enable-background:new 0 0 800 1334;" xml:space="preserve">
<style type="text/css">
	.st0{fill:#FFFFFF;}
</style>
<g>
	<g>
		<path class="st0" d="M750.5,722.6c-14.4-0.1-24.2-16-32.6-53.2c-5.4-23.8-10.1-32.6-12.3-35.7c-4.3,5.1-10.5,20.7-14.1,35.8
			c-0.3,1.3-3.1,13.1-7.8,24.8c-4.8,12.2-12.9,28.3-26.9,28.3c-14.4-0.1-24.2-16-32.6-53.2c-5.4-23.8-10.1-32.6-12.3-35.7
			c-4.3,5.2-10.5,20.7-14.1,35.8c-0.3,1.3-3.1,13.1-7.8,24.8c-4.8,12.2-12.9,28.3-26.9,28.3c-14.4-0.1-24.2-16-32.6-53.2l-0.3-1.4
			c-0.1-0.3-0.2-0.7-0.2-1c-0.1,0.4-0.2,0.8-0.3,1.2c-0.2,0.7-1.5,6.5-3.9,12.2c-1.6,4.1-6.6,16.4-17.5,16.4
			c-13.9-0.1-18.3-19.4-20.4-28.7c-0.1-0.6-0.3-1.1-0.4-1.7c-0.2,0.6-0.3,1.2-0.4,1.7c-0.1,0.6-1.5,6.4-3.9,12.2
			c-1.6,4.1-6.6,16.4-17.5,16.4c-13.9-0.1-18.3-19.4-20.4-28.7c-0.1-0.6-0.3-1.1-0.4-1.7c-0.2,0.6-0.3,1.2-0.4,1.7
			c-0.1,0.6-1.5,6.4-3.9,12.2c-1.6,4.1-6.6,16.4-17.5,16.4c-13.9-0.1-18.3-19.4-20.4-28.7c-0.1-0.6-0.3-1.1-0.4-1.7
			c-0.2,0.6-0.3,1.2-0.4,1.8c-0.2,0.6-1.5,6.4-3.9,12.2c-1.6,4.1-6.6,16.4-17.5,16.4c-13.9-0.1-18.3-19.4-20.4-28.7
			c-0.1-0.6-0.3-1.1-0.4-1.7c-0.2,0.6-0.3,1.2-0.4,1.7c-0.2,0.6-1.5,6.4-3.9,12.2c-1.6,4.1-6.6,16.4-17.5,16.4
			c-13.9-0.1-18.3-19.4-20.4-28.7c-0.1-0.4-0.2-0.7-0.2-1c-0.2,0.8-0.4,1.5-0.6,2.3c-0.3,1.4-3.2,13.2-7.8,24.9
			c-4.8,12.2-12.9,28.3-26.9,28.3c-14.4-0.1-24.2-16-32.6-53.2c-5.4-23.8-10.1-32.6-12.3-35.7c-4.3,5.1-10.5,20.7-14.1,35.8
			c-0.3,1.3-3.1,13.1-7.8,24.8c-4.8,12.2-12.9,28.3-26.9,28.3c-14.4-0.1-24.2-16-32.6-53.2c-5.4-23.8-10.1-32.6-12.3-35.7
			c-4.3,5.2-10.5,20.7-14.1,35.8c-0.3,1.3-3.1,13.1-7.8,24.8c-4.8,12.2-12.9,28.3-26.9,28.3h0c-14.4-0.1-24.1-16-32.6-53.2
			c-5.4-23.8-10.1-32.6-12.3-35.7c-4.3,5.2-10.5,20.7-14.1,35.8c-0.6,2.7-2.4,5.1-4.7,6.5c-2.4,1.5-5.2,1.9-8,1.3
			c-5.6-1.3-9.1-7-7.8-12.6c0.3-1.3,3.1-13.1,7.8-24.8c4.8-12.2,12.9-28.3,26.9-28.3c14.4,0.1,24.2,16,32.6,53.2
			c5.4,23.8,10.1,32.6,12.3,35.7c4.3-5.1,10.5-20.7,14.1-35.8c0.3-1.3,3.1-13.1,7.8-24.8c4.8-12.2,12.9-28.3,26.9-28.3
			c14.4,0.1,24.2,16,32.6,53.2c5.4,23.8,10.1,32.6,12.3,35.7c4.3-5.1,10.5-20.7,14.1-35.8c0.3-1.3,3.1-13.1,7.8-24.8
			c4.8-12.2,12.9-28.3,26.9-28.3c14.4,0.1,24.2,16,32.6,53.2c5.4,23.8,10.1,32.6,12.3,35.7c4.3-5.2,10.5-20.7,14.1-35.8
			c4.5-19.6,11.7-29.5,21.5-29.5c13.8,0,18.2,19.1,20.3,28.3c0.1,0.6,0.3,1.1,0.4,1.7c0.2-0.6,0.3-1.2,0.4-1.7
			c4.5-19,11.7-28.6,21.4-28.6c13.9,0.1,18.3,19.4,20.4,28.7c0.1,0.6,0.3,1.1,0.4,1.7c0.2-0.6,0.3-1.2,0.4-1.7
			c4.5-19,11.7-28.6,21.4-28.6c13.9,0.1,18.3,19.4,20.4,28.7c0.1,0.6,0.3,1.1,0.4,1.7c0.2-0.6,0.3-1.2,0.4-1.8
			c0.1-0.6,1.5-6.4,3.9-12.2c1.6-4.1,6.6-16.4,17.5-16.4c13.9,0.1,18.3,19.4,20.4,28.7c0.1,0.6,0.3,1.1,0.4,1.7
			c0.2-0.6,0.3-1.2,0.4-1.7c0.1-0.6,1.5-6.4,3.9-12.2c1.6-4.1,6.6-16.4,17.5-16.4c13.9,0.1,18.3,19.4,20.4,28.7
			c0.1,0.6,0.3,1.1,0.4,1.7c0.2-0.6,0.3-1.2,0.4-1.8c0.1-0.6,1.5-6.4,3.8-12.1c1.6-4.1,6.5-16.4,17.4-16.4
			c13.9,0,18.1,18.6,20.4,28.7l0.3,1.4c5.4,23.6,10,32.4,12.3,35.5c4.3-5.1,10.5-20.7,14.1-35.8c0.3-1.3,3.1-13.1,7.8-24.8
			c4.8-12.2,12.9-28.3,26.9-28.3c14.4,0.1,24.2,16,32.6,53.2c5.4,23.8,10.1,32.6,12.3,35.7c4.3-5.2,10.5-20.7,14.1-35.8
			c0.3-1.3,3.1-13.1,7.8-24.8c4.8-12.2,12.9-28.3,26.9-28.3c14.4,0.1,24.2,16,32.6,53.2c5.4,23.8,10.1,32.6,12.3,35.7
			c4.3-5.2,10.5-20.7,14.1-35.8c1.3-5.6,6.9-9.1,12.5-7.8c5.7,1.3,9.2,7,7.9,12.7c-0.3,1.3-3.1,13.1-7.8,24.8
			C772.6,706.4,764.5,722.6,750.5,722.6z M784.2,669.2C784.2,669.2,784.2,669.3,784.2,669.2C784.2,669.3,784.2,669.3,784.2,669.2z
			 M784.2,669.2C784.2,669.2,784.2,669.2,784.2,669.2C784.2,669.2,784.2,669.2,784.2,669.2z"/>
	</g>
</g>
</svg>
