<?xml version="1.0" encoding="utf-8"?>
<!-- Generator: Adobe Illustrator 22.0.1, SVG Export Plug-In . SVG Version: 6.00 Build 0)  -->
<svg version="1.1" id="Layer_1" xmlns="http://www.w3.org/2000/svg" xmlns:xlink="http://www.w3.org/1999/xlink" x="0px" y="0px"
	 viewBox="0 0 750 1334" style="enable-background:new 0 0 750 1334;" xml:space="preserve">
<style type="text/css">
	.st0{fill:#2B2422;}
</style>
<g>
	<path class="st0" d="M163.3,712.6c-0.5,0-1.1-0.1-1.6-0.2c-7.9-1.6-15.1-16.9-21.6-45.3c-6.7-29.6-14.1-44.6-21.9-44.6c0,0,0,0,0,0
		c-13.3,0-23.9,44.2-24,44.7c-0.4,1.9-10.9,45.4-25,45.4c0,0,0,0,0,0c-8.3,0-16-15.3-22.8-45.4c-6.7-29.6-14.1-44.6-21.9-44.6
		c0,0,0,0,0,0c-13.3,0-23.9,44.2-24,44.7c-0.1,0.3-0.3,0.4-0.6,0.4c-0.3-0.1-0.4-0.3-0.4-0.6c0.4-1.9,10.9-45.5,25-45.5c0,0,0,0,0,0
		c8.3,0,16,15.3,22.8,45.4c6.7,29.6,14.1,44.6,21.9,44.6c0,0,0,0,0,0c13.3,0,23.9-44.2,24-44.6c0.4-1.9,10.9-45.4,25-45.4
		c0,0,0,0,0,0c8.3,0,16,15.3,22.8,45.4c6.4,28,13.4,43,20.8,44.5c2.1,0.4,4.2-0.1,6.3-1.5c18.5-12.3,33.8-87.3,33.9-88.1l0.1-0.4
		h395.9l0.1,0.3c0,0.1,4.1,11.9,11.6,45.1c6.7,29.6,14.1,44.6,21.9,44.6c0,0,0,0,0,0c13.3,0,23.9-44.2,24-44.6
		c0.4-1.9,10.9-45.4,25-45.4c0,0,0,0,0,0c8.3,0,16,15.3,22.9,45.4c6.7,29.6,14.1,44.6,21.9,44.6c0,0,0,0,0,0
		c13.3,0,23.9-44.2,24-44.6c0.1-0.3,0.3-0.4,0.6-0.4c0.3,0.1,0.4,0.3,0.4,0.6c-0.4,1.9-10.9,45.4-25,45.4c0,0,0,0,0,0
		c-8.3,0-16-15.3-22.8-45.4c-6.7-29.6-14.1-44.6-21.9-44.6c0,0,0,0,0,0c-13.3,0-23.9,44.2-24,44.7c-0.4,1.9-10.9,45.4-25,45.4
		c0,0,0,0,0,0c-8.3,0-16-15.3-22.8-45.4c-6.8-30.1-10.8-42.5-11.5-44.7H203.1c-1.4,6.6-15.9,76.1-34.3,88.3
		C167,712,165.1,712.6,163.3,712.6z"/>
</g>
</svg>
