<?xml version="1.0" encoding="utf-8"?>
<!-- Generator: Adobe Illustrator 22.0.1, SVG Export Plug-In . SVG Version: 6.00 Build 0)  -->
<svg version="1.1" id="Layer_1" xmlns="http://www.w3.org/2000/svg" xmlns:xlink="http://www.w3.org/1999/xlink" x="0px" y="0px"
	 viewBox="0 0 150 200" style="enable-background:new 0 0 150 200;" xml:space="preserve">
<style type="text/css">
	.st0{fill:none;}
	.st1{opacity:0.2;}
	.st2{fill:#FFFFFF;}
	.st3{opacity:0.5;fill:#FFFFFF;}
</style>
<g>
	<path class="st0" d="M55.6,121.9c0.1,7,13,11.9,13.8-15.5c-4.8,2.1-8.9,3.8-12.7,5.8C56,115.1,55.6,118.3,55.6,121.9z"/>
	<g class="st1">
		<path class="st2" d="M56.9,111.5c-0.1,0.2-0.1,0.4-0.2,0.6c3.8-2,7.9-3.7,12.7-5.8c0-1.1,0-2.3,0-3.5c0-2.3,0.3-4.2,0.9-5.8
			C64.9,102.4,60.4,106.2,56.9,111.5z"/>
		<path class="st2" d="M97,62.8c-2.8,5.6-7.4,12.6-14.3,21c-2.5,3.1-5,5.8-7.2,8.2c3.4-0.9,7.4,1.3,9.2,6.6c0.2-0.1,0.3-0.2,0.5-0.3
			C124.9,74.4,117.4,62.2,97,62.8z"/>
	</g>
	<path class="st2" d="M56.3,112.4c0.1-0.1,0.3-0.1,0.4-0.2c0.1-0.2,0.1-0.4,0.2-0.6C56.7,111.8,56.5,112.1,56.3,112.4z"/>
	<path class="st3" d="M78,48c-0.1,4.8-1.1,11.1-3.3,19.2c-0.9,3.2-1.9,6.6-3.2,10.3c-5.7,16.5-11.9,24.2-14.6,34
		c3.5-5.3,8-9.2,13.5-14.4c1.1-2.8,3-4.6,5.1-5.1c2.3-2.4,4.7-5.1,7.2-8.2c6.8-8.5,11.5-15.4,14.3-21C106.9,43.1,94.4,40.1,78,48z"
		/>
	<path class="st2" d="M85.7,106.1c0.1-3-0.3-5.5-1-7.6c-1.8-5.3-5.8-7.4-9.2-6.6c-2.1,0.6-4,2.3-5.1,5.1c-0.6,1.6-1,3.5-0.9,5.8
		c0,1.2,0,2.4,0,3.5c-0.7,27.5-13.7,22.6-13.8,15.5c0-3.6,0.4-6.8,1.1-9.7l0.2-0.6c2.6-9.8,8.9-17.5,14.6-34
		c1.3-3.7,2.3-7.1,3.2-10.3c2.3-8.1,3.3-14.4,3.3-19.2c0.2-21.8-19.7-11.4-33.6,10.8c-9.3,14.8-8.1,33.5-7,51.5
		c1.4,23,2.6,31,1.5,36.3c-2,9.6-2.7,17.6-2.5,24.3c7.7,6.5,17.1,11,27.4,13c4.3-16.7-0.3-34.5-0.3-34.5
		C60.7,140,84.8,131.4,85.7,106.1z"/>
</g>
</svg>
