<?xml version="1.0" encoding="utf-8"?>
<!-- Generator: Adobe Illustrator 22.0.1, SVG Export Plug-In . SVG Version: 6.00 Build 0)  -->
<svg version="1.1" id="Layer_1" xmlns="http://www.w3.org/2000/svg" xmlns:xlink="http://www.w3.org/1999/xlink" x="0px" y="0px"
	 viewBox="0 0 150 150" style="enable-background:new 0 0 150 150;" xml:space="preserve">
<style type="text/css">
	.st0{fill:#E3338B;}
</style>
<g>
	<path class="st0" d="M124.9,93.7c-4.7,0-6.2-8.1-8-18.3c-0.9-4.8-2.5-13.7-4.1-15c-1.6,1.3-3.2,10.2-4.1,15
		c-1.9,10.2-3.3,18.3-8,18.3c-4.7,0-6.2-8.1-8-18.3c-0.9-4.8-2.5-13.7-4.1-15c-1.6,1.3-3.2,10.2-4.1,15c-1.9,10.2-3.3,18.3-8,18.3
		c-4.7,0-6.2-8.1-8-18.3c-0.9-4.8-2.5-13.7-4.1-15c-1.6,1.3-3.2,10.2-4.1,15c-1.9,10.2-3.3,18.3-8,18.3c-4.7,0-6.2-8.1-8-18.3
		c-0.9-4.8-2.5-13.7-4.1-15c-1.6,1.3-3.2,10.2-4.1,15c-1.9,10.2-3.3,18.3-8,18.3c-4.7,0-6.2-7.8-8-17.7c-0.9-4.7-2.5-13.5-4.2-14.4
		c-1.1,0-1.9-0.9-1.9-2c0-1.1,0.9-2,2-2c4.7,0,6.2,7.8,8,17.7c0.9,4.6,2.5,13.2,4.1,14.4c1.6-1.3,3.2-10.2,4.1-15
		c1.9-10.2,3.3-18.3,8-18.3c4.7,0,6.2,8.1,8,18.3c0.9,4.8,2.5,13.7,4.1,15c1.6-1.3,3.2-10.2,4.1-15c1.9-10.2,3.3-18.3,8-18.3
		s6.2,8.1,8,18.3c0.9,4.8,2.5,13.7,4.1,15c1.6-1.3,3.2-10.2,4.1-15c1.9-10.2,3.3-18.3,8-18.3c4.7,0,6.2,8.1,8,18.3
		c0.9,4.8,2.5,13.7,4.1,15c1.6-1.3,3.2-10.2,4.1-15c1.9-10.2,3.3-18.3,8-18.3c4.7,0,6.2,8.1,8,18.3c0.9,4.8,2.5,13.7,4.1,15
		c1.3-1.2,2.1-8.9,2.5-13c0.9-9,1.7-16.7,6.5-16.7c1.1,0,2,0.9,2,2c0,1.1-0.9,2-1.9,2c-1.4,1-2.2,8.9-2.6,13.1
		C130.6,86,129.8,93.7,124.9,93.7z M16,61.6L16,61.6L16,61.6z"/>
</g>
</svg>
