<?xml version="1.0" encoding="utf-8"?>
<!-- Generator: Adobe Illustrator 22.0.1, SVG Export Plug-In . SVG Version: 6.00 Build 0)  -->
<svg version="1.1" id="Layer_1" xmlns="http://www.w3.org/2000/svg" xmlns:xlink="http://www.w3.org/1999/xlink" x="0px" y="0px"
	 viewBox="0 0 150 150" style="enable-background:new 0 0 150 150;" xml:space="preserve">
<style type="text/css">
	.st0{clip-path:url(#SVGID_14_);}
	.st1{clip-path:url(#SVGID_15_);}
	.st2{clip-path:url(#SVGID_16_);}
	.st3{clip-path:url(#SVGID_17_);}
	.st4{clip-path:url(#SVGID_18_);}
	.st5{clip-path:url(#SVGID_19_);}
	.st6{clip-path:url(#SVGID_20_);}
	.st7{clip-path:url(#SVGID_21_);}
	.st8{clip-path:url(#SVGID_22_);}
	.st9{clip-path:url(#SVGID_23_);}
	.st10{clip-path:url(#SVGID_24_);}
	.st11{clip-path:url(#SVGID_25_);}
</style>
<g>
	<g>
		<defs>
			<path id="SVGID_1_" d="M102.5,82.5h-55c-1.2,0-2.1,1-2.1,2.1c0,1.2,1,2.1,2.1,2.1h55c1.2,0,2.1-1,2.1-2.1
				C104.6,83.5,103.7,82.5,102.5,82.5"/>
		</defs>
		<defs>
			<path id="SVGID_2_" d="M47.5,96.4h24.2c1.2,0,2.1-1,2.1-2.1c0-1.2-1-2.1-2.1-2.1H47.5c-1.2,0-2.1,1-2.1,2.1
				C45.4,95.5,46.3,96.4,47.5,96.4"/>
		</defs>
		<defs>
			<path id="SVGID_3_" d="M47.5,106.1h24.2c1.2,0,2.1-1,2.1-2.1s-1-2.1-2.1-2.1H47.5c-1.2,0-2.1,1-2.1,2.1S46.3,106.1,47.5,106.1"/>
		</defs>
		<defs>
			<path id="SVGID_4_" d="M47.5,115.7h24.2c1.2,0,2.1-1,2.1-2.1c0-1.2-1-2.1-2.1-2.1H47.5c-1.2,0-2.1,1-2.1,2.1
				C45.4,114.8,46.3,115.7,47.5,115.7"/>
		</defs>
		<defs>
			<path id="SVGID_5_" d="M47.5,125.4h24.2c1.2,0,2.1-1,2.1-2.1c0-1.2-1-2.1-2.1-2.1H47.5c-1.2,0-2.1,1-2.1,2.1
				C45.4,124.4,46.3,125.4,47.5,125.4"/>
		</defs>
		<defs>
			<path id="SVGID_6_" d="M87.5,130.7h-40c-1.2,0-2.1,1-2.1,2.1c0,1.2,1,2.1,2.1,2.1h40c1.2,0,2.1-1,2.1-2.1
				C89.7,131.7,88.7,130.7,87.5,130.7"/>
		</defs>
		<defs>
			<path id="SVGID_7_" d="M47.5,19.3h24.2c1.2,0,2.1-1,2.1-2.1c0-1.2-1-2.1-2.1-2.1H47.5c-1.2,0-2.1,1-2.1,2.1
				C45.4,18.3,46.3,19.3,47.5,19.3"/>
		</defs>
		<defs>
			<path id="SVGID_8_" d="M47.5,28.9h24.2c1.2,0,2.1-1,2.1-2.1c0-1.2-1-2.1-2.1-2.1H47.5c-1.2,0-2.1,1-2.1,2.1
				C45.4,28,46.3,28.9,47.5,28.9"/>
		</defs>
		<defs>
			<path id="SVGID_9_" d="M47.5,38.6h40c1.2,0,2.1-1,2.1-2.1c0-1.2-1-2.1-2.1-2.1h-40c-1.2,0-2.1,1-2.1,2.1
				C45.4,37.6,46.3,38.6,47.5,38.6"/>
		</defs>
		<defs>
			<path id="SVGID_10_" d="M47.5,48.2h24.2c1.2,0,2.1-1,2.1-2.1c0-1.2-1-2.1-2.1-2.1H47.5c-1.2,0-2.1,1-2.1,2.1
				C45.4,47.2,46.3,48.2,47.5,48.2"/>
		</defs>
		<defs>
			<path id="SVGID_11_" d="M47.5,57.9h24.2c1.2,0,2.1-1,2.1-2.1c0-1.2-1-2.1-2.1-2.1H47.5c-1.2,0-2.1,1-2.1,2.1
				C45.4,56.9,46.3,57.9,47.5,57.9"/>
		</defs>
		<defs>
			<path id="SVGID_12_" d="M47.5,67.5h24.2c1.2,0,2.1-1,2.1-2.1c0-1.2-1-2.1-2.1-2.1H47.5c-1.2,0-2.1,1-2.1,2.1
				C45.4,66.5,46.3,67.5,47.5,67.5"/>
		</defs>
		<defs>
			<path id="SVGID_13_" d="M47.5,77.1h24.2c1.2,0,2.1-1,2.1-2.1c0-1.2-1-2.1-2.1-2.1H47.5c-1.2,0-2.1,1-2.1,2.1
				C45.4,76.2,46.3,77.1,47.5,77.1"/>
		</defs>
		<use xlink:href="#SVGID_1_"  style="overflow:visible;fill:#E3338B;"/>
		<use xlink:href="#SVGID_2_"  style="overflow:visible;fill:#E3338B;"/>
		<use xlink:href="#SVGID_3_"  style="overflow:visible;fill:#E3338B;"/>
		<use xlink:href="#SVGID_4_"  style="overflow:visible;fill:#E3338B;"/>
		<use xlink:href="#SVGID_5_"  style="overflow:visible;fill:#E3338B;"/>
		<use xlink:href="#SVGID_6_"  style="overflow:visible;fill:#E3338B;"/>
		<use xlink:href="#SVGID_7_"  style="overflow:visible;fill:#E3338B;"/>
		<use xlink:href="#SVGID_8_"  style="overflow:visible;fill:#E3338B;"/>
		<use xlink:href="#SVGID_9_"  style="overflow:visible;fill:#E3338B;"/>
		<use xlink:href="#SVGID_10_"  style="overflow:visible;fill:#E3338B;"/>
		<use xlink:href="#SVGID_11_"  style="overflow:visible;fill:#E3338B;"/>
		<use xlink:href="#SVGID_12_"  style="overflow:visible;fill:#E3338B;"/>
		<use xlink:href="#SVGID_13_"  style="overflow:visible;fill:#E3338B;"/>
		<clipPath id="SVGID_14_">
			<use xlink:href="#SVGID_1_"  style="overflow:visible;"/>
		</clipPath>
		<clipPath id="SVGID_15_" class="st0">
			<use xlink:href="#SVGID_2_"  style="overflow:visible;"/>
		</clipPath>
		<clipPath id="SVGID_16_" class="st1">
			<use xlink:href="#SVGID_3_"  style="overflow:visible;"/>
		</clipPath>
		<clipPath id="SVGID_17_" class="st2">
			<use xlink:href="#SVGID_4_"  style="overflow:visible;"/>
		</clipPath>
		<clipPath id="SVGID_18_" class="st3">
			<use xlink:href="#SVGID_5_"  style="overflow:visible;"/>
		</clipPath>
		<clipPath id="SVGID_19_" class="st4">
			<use xlink:href="#SVGID_6_"  style="overflow:visible;"/>
		</clipPath>
		<clipPath id="SVGID_20_" class="st5">
			<use xlink:href="#SVGID_7_"  style="overflow:visible;"/>
		</clipPath>
		<clipPath id="SVGID_21_" class="st6">
			<use xlink:href="#SVGID_8_"  style="overflow:visible;"/>
		</clipPath>
		<clipPath id="SVGID_22_" class="st7">
			<use xlink:href="#SVGID_9_"  style="overflow:visible;"/>
		</clipPath>
		<clipPath id="SVGID_23_" class="st8">
			<use xlink:href="#SVGID_10_"  style="overflow:visible;"/>
		</clipPath>
		<clipPath id="SVGID_24_" class="st9">
			<use xlink:href="#SVGID_11_"  style="overflow:visible;"/>
		</clipPath>
		<clipPath id="SVGID_25_" class="st10">
			<use xlink:href="#SVGID_12_"  style="overflow:visible;"/>
		</clipPath>
		<clipPath id="SVGID_26_" class="st11">
			<use xlink:href="#SVGID_13_"  style="overflow:visible;"/>
		</clipPath>
	</g>
</g>
</svg>
