<?xml version="1.0" encoding="utf-8"?>
<!-- Generator: Adobe Illustrator 22.0.1, SVG Export Plug-In . SVG Version: 6.00 Build 0)  -->
<svg version="1.1" id="Layer_1" xmlns="http://www.w3.org/2000/svg" xmlns:xlink="http://www.w3.org/1999/xlink" x="0px" y="0px"
	 viewBox="0 0 150 150" style="enable-background:new 0 0 150 150;" xml:space="preserve">
<style type="text/css">
	.st0{fill:#E3338B;}
</style>
<path class="st0" d="M43.9,29.6L43.9,29.6c-0.8,0.1-1.4,0.8-1.4,1.5c0,0.4,0.1,0.8,0.4,1.1l27,32.1l-21,23.5
	c-1.6,1.8-1.1,4.6,1.1,5.7l55,26.8c1.7,0.9,3.4-1.3,2-2.8L79.2,87.7l22.1-24c1.5-1.7,1-4.4-1-5.4L44.7,29.7
	c-0.2-0.1-0.5-0.2-0.7-0.2C44,29.6,44,29.6,43.9,29.6"/>
</svg>
