<?xml version="1.0" encoding="utf-8"?>
<!-- Generator: Adobe Illustrator 22.0.1, SVG Export Plug-In . SVG Version: 6.00 Build 0)  -->
<svg version="1.1" id="Layer_1" xmlns="http://www.w3.org/2000/svg" xmlns:xlink="http://www.w3.org/1999/xlink" x="0px" y="0px"
	 viewBox="0 0 150 150" style="enable-background:new 0 0 150 150;" xml:space="preserve">
<style type="text/css">
	.st0{fill:#E3338B;}
</style>
<path class="st0" d="M76.8,72.9c0,0-0.9-15.4,2.2-28.4c3.1-12.9,10.5-20.8,5.9-26.8C78.6,9.9,66,18.7,62,45.5s0.9,47.8,2.8,68.4
	c1.8,20.6,0,19.7,4.3,21s17.6-7.4,16.3-13.6s-5.5-30.5-5.5-30.5s6.9-2.3,8.9-13.9c1.9-10.9-0.6-11.4-1.6-13.9
	c-0.6-4.3-1.8-8.3-3.1-8c-0.7,0.2-0.9,2.5-0.9,2.5s-0.9-1.8-2.2-1.5c-1.2,0.3,0.7,8.4,0.3,8.9C80.8,65.9,81,68.8,76.8,72.9z"/>
</svg>
