<?xml version="1.0" encoding="utf-8"?>
<!-- Generator: Adobe Illustrator 22.0.1, SVG Export Plug-In . SVG Version: 6.00 Build 0)  -->
<svg version="1.1" id="Layer_1" xmlns="http://www.w3.org/2000/svg" xmlns:xlink="http://www.w3.org/1999/xlink" x="0px" y="0px"
	 viewBox="0 0 750 1334" style="enable-background:new 0 0 750 1334;" xml:space="preserve">
<style type="text/css">
	.st0{fill:none;}
	.st1{opacity:0.3;}
	.st2{fill:#FFFFFF;}
	.st3{opacity:0.7;}
</style>
<g>
	<g>
		
			<image style="overflow:visible;opacity:0.75;" width="262" height="886" xlink:href="AA99EC2F5641BBD6.png"  transform="matrix(1 0 0 1 268.5 225)">
		</image>
		<g>
			
				<image style="overflow:visible;" width="450" height="600" xlink:href="171221-AS-original_rabbit2.png"  transform="matrix(1.5133 0 0 1.5133 34.5 213)">
			</image>
		</g>
	</g>
	<g>
		<g>
			<path class="st0" d="M497.1,585.3c4.4,1.1,8.6,2.2,11.3,0.8c3.7-1.9,5.3-6.8,6.8-11.5c1.1-3.5,2.2-6.8,4.1-9.2
				c2-2.4,4.9-4.4,7.8-6.3c4.4-3,8.6-5.9,8.6-9.7c0-3.8-4.2-6.7-8.6-9.7c-2.8-1.9-5.8-3.9-7.8-6.3c-1.9-2.3-3-5.6-4.1-9.2
				c-1.5-4.7-3.1-9.6-6.8-11.6c-2.8-1.4-6.9-0.3-11.3,0.8c-4.2,1.1-8.6,2.2-12.5,1.4c-3.5-0.7-6.7-3.5-9.8-6.1c-3.5-3-7.1-6-10.8-6
				c-3.7,0-7.3,3.1-10.8,6c-1.6,1.4-3.3,2.8-5,3.9c3.1,0.4,7,2.8,11.8,8.6c0.6,0,1.2-0.1,1.8-0.1c4.9-10.7,10.7-18.9,19.3-2.7
				c0.9,1.7,1.7,3.6,2.4,5.6c14.4,4.6,24.3,14.2,24.3,25.3c0,15.6-19.6,28.3-43.8,28.3s-43.8-12.7-43.8-28.3c0-9.7,7.5-18.2,19-23.3
				c0.1-5.4,0.6-9.5,1.7-10.6c0.2-0.2,0.3-0.3,0.5-0.5c-3.4,0.2-7.1-0.7-10.6-1.6c-4.4-1.1-8.6-2.2-11.3-0.8
				c-3.7,1.9-5.3,6.8-6.8,11.5c-1.1,3.5-2.2,6.8-4.1,9.2c-2,2.4-4.9,4.4-7.8,6.3c-4.4,3-8.6,5.9-8.6,9.7c0,3.8,4.2,6.7,8.6,9.7
				c2.8,1.9,5.8,3.9,7.8,6.3c1.9,2.3,3,5.6,4.1,9.2c1.5,4.7,3.1,9.6,6.8,11.6c2.8,1.4,6.9,0.3,11.3-0.8c3.2-0.8,6.4-1.7,9.5-1.7
				c1,0,2,0.1,2.9,0.3c3.5,0.7,6.7,3.5,9.8,6.1c3.5,3,7.1,6,10.8,6c3.7,0,7.3-3.1,10.8-6c3.1-2.6,6.3-5.4,9.8-6.1
				C488.6,583.1,492.9,584.2,497.1,585.3z"/>
		</g>
		<g>
			<path class="st0" d="M442.7,586.9c-3.2-0.7-7.2,0.3-11.1,1.3c-4.8,1.2-9.7,2.5-13.5,0.6c-4.8-2.5-6.7-8.2-8.3-13.3
				c-1-3.2-2-6.3-3.5-8.1c-1.7-2.1-4.5-4-7.2-5.8c-4.9-3.3-9.9-6.8-9.9-12.2c0-5.4,5.1-8.8,9.9-12.2c2.7-1.8,5.4-3.7,7.2-5.8
				c1.6-1.9,2.5-4.9,3.5-8.1c1.6-5.1,3.4-10.8,8.3-13.3c3.8-1.9,8.7-0.7,13.5,0.6c3.9,1,7.9,2,11.1,1.3c2.7-0.6,5.5-3,8.5-5.5
				c3.5-3,7.1-6,11.3-6.6c-21.7,0.2-42.1,5.5-57.3,15.2c-14.8,9.4-22.9,21.6-22.9,34.4s8.1,25,22.9,34.4
				c15.3,9.7,35.6,15.1,57.3,15.2c-4.2-0.6-7.8-3.7-11.3-6.6C448.3,589.8,445.5,587.5,442.7,586.9z"/>
		</g>
		<g>
			<path class="st0" d="M521.8,515c-15-9.5-34.9-14.9-56.2-15.2c4.1,0.6,7.7,3.7,11.2,6.6c3,2.5,5.8,4.9,8.5,5.5
				c3.2,0.7,7.2-0.3,11.1-1.3c4.8-1.2,9.7-2.5,13.5-0.6c4.8,2.5,6.7,8.2,8.3,13.3c1,3.2,2,6.3,3.5,8.1c1.7,2.1,4.5,4,7.2,5.8
				c4.9,3.3,9.9,6.8,9.9,12.2c0,5.4-5.1,8.8-9.9,12.2c-2.7,1.8-5.4,3.7-7.2,5.8c-1.6,1.9-2.5,4.9-3.5,8.1
				c-1.6,5.1-3.4,10.8-8.3,13.3c-3.8,1.9-8.7,0.7-13.5-0.6c-3.9-1-7.9-2-11.1-1.3c-2.7,0.6-5.5,3-8.5,5.5c-3.5,2.9-7.1,6-11.2,6.6
				c21.3-0.3,41.2-5.7,56.2-15.2c14.8-9.4,22.9-21.6,22.9-34.4S536.6,524.3,521.8,515z"/>
		</g>
		<g class="st1">
			<path class="st2" d="M487.3,560.1c2.8-3.1,4.5-6.7,4.5-10.7c0-4.3-1.9-8.2-5.2-11.4C487.8,547,487.5,555.5,487.3,560.1z"/>
		</g>
		<g class="st1">
			<path class="st2" d="M436.2,549.4c0,4,1.6,7.6,4.5,10.7c-0.3-4.3-0.9-12-1.2-19.9C437.4,542.9,436.2,546,436.2,549.4z"/>
		</g>
		<g class="st1">
			<path class="st2" d="M527.2,506.5c-17.1-10.8-39.7-16.8-63.7-16.8s-46.6,6-63.7,16.8c-17.8,11.3-27.6,26.5-27.6,42.8
				s9.8,31.6,27.6,42.8c17.1,10.8,39.7,16.8,63.7,16.8s46.6-6,63.7-16.8c17.8-11.3,27.6-26.5,27.6-42.8S545,517.8,527.2,506.5z
				 M521.8,583.8c-15,9.5-34.9,14.9-56.2,15.2c-0.5,0.1-1.1,0.1-1.6,0.1c-0.5,0-1,0-1.5-0.1c-21.7-0.2-42.1-5.5-57.3-15.2
				c-14.8-9.4-22.9-21.6-22.9-34.4s8.1-25,22.9-34.4c15.3-9.7,35.6-15.1,57.3-15.2c0.5-0.1,1-0.1,1.5-0.1c0.5,0,1.1,0,1.6,0.1
				c21.3,0.3,41.2,5.7,56.2,15.2c14.8,9.4,22.9,21.6,22.9,34.4S536.6,574.4,521.8,583.8z"/>
		</g>
		<g>
			<g>
				<path class="st2" d="M461.7,521.2c-0.6,0-1.2,0.1-1.8,0.1c0.4,0.4,0.7,0.9,1.1,1.4C461.2,522.1,461.4,521.6,461.7,521.2z"/>
			</g>
			<g class="st3">
				<path class="st2" d="M504.8,549.4c0,13.9-18.3,25.3-40.8,25.3s-40.8-11.3-40.8-25.3c0-8.2,6.3-15.4,16-20c0-1.1,0-2.2,0-3.3
					c-11.5,5.1-19,13.6-19,23.3c0,15.6,19.6,28.3,43.8,28.3s43.8-12.7,43.8-28.3c0-11.1-9.9-20.7-24.3-25.3c0.4,1.1,0.8,2.3,1.1,3.5
					C496.6,532,504.8,540.1,504.8,549.4z"/>
			</g>
		</g>
		<g class="st3">
			<path class="st2" d="M535.5,535.9c-2.9-2-6-4.1-7.9-6.4c-1.7-2-2.8-5.4-3.9-9c-1.8-5.6-3.8-12-9.1-14.7
				c-4.2-2.1-9.6-0.7-14.9,0.6c-4.3,1.1-8.7,2.3-12.3,1.5c-3-0.7-6.1-3.3-9.4-6c-3.8-3.3-7.8-6.6-12.3-7.3c-0.6-0.1-1.2-0.1-1.8-0.1
				c-0.5,0-1.1,0-1.6,0.1c-4.6,0.7-8.6,4-12.5,7.3c-3.3,2.8-6.4,5.4-9.4,6c-3.6,0.8-8-0.4-12.3-1.5c-5.2-1.4-10.7-2.8-14.9-0.6
				c-5.3,2.7-7.4,9.1-9.1,14.7c-1.1,3.6-2.2,6.9-3.9,9c-1.9,2.3-5,4.4-7.9,6.4c-5.4,3.7-11,7.5-11,13.4c0,5.9,5.6,9.7,11,13.4
				c2.9,2,6,4.1,7.9,6.4c1.7,2,2.8,5.4,3.9,9c1.8,5.6,3.8,12,9.1,14.7c4.2,2.1,9.6,0.7,14.9-0.6c4.3-1.1,8.7-2.3,12.3-1.5
				c3,0.7,6.1,3.3,9.4,6c3.9,3.3,7.9,6.7,12.5,7.3c0.4,0,0.7,0,1.1,0c0.8,0,1.5,0,2.3,0c4.5-0.7,8.5-4.1,12.3-7.3
				c3.3-2.8,6.4-5.4,9.4-6c3.6-0.8,8,0.4,12.3,1.5c5.2,1.4,10.7,2.8,14.9,0.6c5.3-2.7,7.4-9.1,9.1-14.7c1.1-3.6,2.2-6.9,3.9-9
				c1.9-2.3,5-4.4,7.9-6.4c5.4-3.7,11-7.5,11-13.4C546.5,543.4,540.9,539.6,535.5,535.9z M533.7,560.1c-3.1,2.1-6.3,4.3-8.6,7
				c-2.1,2.6-3.3,6.2-4.5,10.1c-1.7,5.2-3.4,10.6-7.5,12.7c-3.1,1.6-7.7,0.4-12.5-0.9c-4.6-1.2-9.5-2.5-13.8-1.5
				c-3.8,0.8-7.4,3.8-10.8,6.7c-3.9,3.3-7.9,6.7-12,6.7c-4.1,0-8.1-3.4-12-6.7c-3.4-2.9-7-5.9-10.8-6.7c-1.1-0.2-2.1-0.3-3.3-0.3
				c-3.4,0-7,0.9-10.5,1.8c-4.9,1.3-9.5,2.5-12.5,0.9c-4.1-2.1-5.8-7.5-7.5-12.7c-1.2-3.9-2.4-7.6-4.5-10.1c-2.2-2.7-5.4-4.9-8.6-7
				c-4.9-3.4-9.5-6.5-9.5-10.7c0-4.2,4.6-7.4,9.5-10.7c3.1-2.1,6.3-4.3,8.6-7c2.1-2.6,3.3-6.2,4.5-10.1c1.7-5.2,3.4-10.6,7.5-12.7
				c3.1-1.6,7.7-0.4,12.5,0.9c3.9,1,7.9,2,11.7,1.8c0.7,0,1.4-0.1,2.1-0.3c1.8-0.4,3.6-1.3,5.3-2.4c1.9-1.3,3.7-2.8,5.6-4.3
				c3.9-3.3,7.9-6.7,12-6.7c4.1,0,8.1,3.4,12,6.7c3.4,2.9,7,5.9,10.8,6.7c4.3,0.9,9.1-0.3,13.8-1.5c4.9-1.3,9.5-2.5,12.5-0.9
				c4.1,2.1,5.8,7.5,7.5,12.7c1.2,3.9,2.4,7.6,4.5,10.1c2.2,2.7,5.4,4.9,8.6,7c4.9,3.4,9.5,6.5,9.5,10.7
				C543.2,553.6,538.6,556.7,533.7,560.1z"/>
		</g>
	</g>
	<g>
		<path class="st2" d="M493.7,290.4h2.7l-7.7,21.4h-2.5l-7.7-21.4h2.6l4.9,13.9c0.6,1.6,1,3.1,1.3,4.6c0.4-1.6,0.8-3.2,1.4-4.7
			L493.7,290.4z"/>
		<path class="st2" d="M499.5,291.4c0-0.6,0.1-1,0.4-1.2s0.6-0.4,1-0.4c0.4,0,0.7,0.1,1,0.4s0.4,0.7,0.4,1.2s-0.1,1-0.4,1.2
			s-0.6,0.4-1,0.4c-0.4,0-0.8-0.1-1-0.4S499.5,291.9,499.5,291.4z M502.1,311.8h-2.4v-16.1h2.4V311.8z"/>
		<path class="st2" d="M515.5,295.5c2.1,0,3.7,0.7,4.9,2.2c1.2,1.4,1.8,3.5,1.8,6.1s-0.6,4.7-1.8,6.1c-1.2,1.5-2.8,2.2-4.9,2.2
			c-1,0-2-0.2-2.9-0.6c-0.9-0.4-1.6-1-2.2-1.8h-0.2l-0.5,2.1H508V289h2.4v5.5c0,1.2,0,2.4-0.1,3.3h0.1
			C511.6,296.3,513.3,295.5,515.5,295.5z M515.1,297.5c-1.7,0-2.9,0.5-3.6,1.4s-1.1,2.6-1.1,4.8s0.4,3.9,1.1,4.8s2,1.5,3.6,1.5
			c1.5,0,2.6-0.5,3.3-1.6s1.1-2.7,1.1-4.7c0-2.1-0.4-3.6-1.1-4.7S516.7,297.5,515.1,297.5z"/>
		<path class="st2" d="M534.5,295.5c0.7,0,1.4,0.1,1.9,0.2l-0.3,2.3c-0.7-0.1-1.2-0.2-1.8-0.2c-1.3,0-2.4,0.5-3.3,1.6
			c-0.9,1.1-1.4,2.4-1.4,3.9v8.6h-2.4v-16.1h2l0.3,3h0.1c0.6-1,1.3-1.9,2.2-2.4S533.5,295.5,534.5,295.5z"/>
		<path class="st2" d="M550,311.8l-0.5-2.3h-0.1c-0.8,1-1.6,1.7-2.4,2c-0.8,0.4-1.8,0.5-3,0.5c-1.6,0-2.8-0.4-3.7-1.2
			c-0.9-0.8-1.4-2-1.4-3.5c0-3.2,2.6-4.9,7.8-5.1l2.7-0.1v-1c0-1.3-0.3-2.2-0.8-2.8c-0.5-0.6-1.4-0.9-2.6-0.9
			c-1.3,0-2.9,0.4-4.5,1.2l-0.7-1.9c0.8-0.4,1.7-0.8,2.6-1c0.9-0.2,1.9-0.4,2.8-0.4c1.9,0,3.3,0.4,4.3,1.3c0.9,0.8,1.4,2.2,1.4,4.1
			v11H550z M544.5,310.1c1.5,0,2.7-0.4,3.6-1.2c0.9-0.8,1.3-2,1.3-3.5v-1.5L547,304c-1.9,0.1-3.3,0.4-4.2,0.9
			c-0.9,0.5-1.3,1.4-1.3,2.5c0,0.9,0.3,1.5,0.8,2C542.8,309.9,543.6,310.1,544.5,310.1z"/>
		<path class="st2" d="M562.8,310.1c0.4,0,0.8,0,1.2-0.1s0.7-0.1,1-0.2v1.9c-0.3,0.1-0.7,0.2-1.2,0.3c-0.5,0.1-1,0.1-1.4,0.1
			c-3.1,0-4.7-1.6-4.7-4.9v-9.6h-2.3v-1.2l2.3-1l1-3.4h1.4v3.7h4.7v1.9h-4.7v9.4c0,1,0.2,1.7,0.7,2.2S562,310.1,562.8,310.1z"/>
		<path class="st2" d="M568.7,291.4c0-0.6,0.1-1,0.4-1.2s0.6-0.4,1-0.4c0.4,0,0.7,0.1,1,0.4s0.4,0.7,0.4,1.2s-0.1,1-0.4,1.2
			s-0.6,0.4-1,0.4c-0.4,0-0.8-0.1-1-0.4S568.7,291.9,568.7,291.4z M571.4,311.8h-2.4v-16.1h2.4V311.8z"/>
		<path class="st2" d="M588.3,311.8v-10.4c0-1.3-0.3-2.3-0.9-2.9s-1.5-1-2.8-1c-1.7,0-2.9,0.5-3.7,1.4s-1.2,2.4-1.2,4.5v8.4h-2.4
			v-16.1h2l0.4,2.2h0.1c0.5-0.8,1.2-1.4,2.1-1.8s1.9-0.7,3-0.7c1.9,0,3.4,0.5,4.4,1.4s1.5,2.4,1.5,4.5v10.5H588.3z"/>
		<path class="st2" d="M609.6,295.7v1.5l-3,0.4c0.3,0.3,0.5,0.8,0.7,1.3s0.3,1.2,0.3,1.9c0,1.6-0.5,2.8-1.6,3.8s-2.5,1.4-4.4,1.4
			c-0.5,0-0.9,0-1.3-0.1c-1,0.5-1.6,1.2-1.6,2.1c0,0.4,0.2,0.8,0.5,1s1,0.3,1.9,0.3h2.8c1.7,0,3.1,0.4,4,1.1
			c0.9,0.7,1.4,1.8,1.4,3.2c0,1.8-0.7,3.1-2.1,4.1s-3.5,1.4-6.2,1.4c-2.1,0-3.7-0.4-4.9-1.2c-1.1-0.8-1.7-1.9-1.7-3.3
			c0-1,0.3-1.8,0.9-2.5s1.5-1.2,2.6-1.5c-0.4-0.2-0.8-0.5-1-0.9c-0.3-0.4-0.4-0.8-0.4-1.4c0-0.6,0.2-1.1,0.5-1.5s0.8-0.9,1.5-1.3
			c-0.8-0.3-1.5-0.9-2-1.7c-0.5-0.8-0.8-1.8-0.8-2.8c0-1.8,0.5-3.1,1.6-4.1s2.5-1.4,4.5-1.4c0.8,0,1.6,0.1,2.3,0.3H609.6z
			 M596.8,314.5c0,0.9,0.4,1.5,1.1,2s1.8,0.7,3.1,0.7c2,0,3.6-0.3,4.5-0.9c1-0.6,1.5-1.4,1.5-2.5c0-0.9-0.3-1.5-0.8-1.8
			s-1.5-0.5-3-0.5h-2.9c-1.1,0-2,0.3-2.6,0.8S596.8,313.5,596.8,314.5z M598.1,300.9c0,1.1,0.3,2,1,2.5s1.5,0.9,2.7,0.9
			c2.4,0,3.6-1.2,3.6-3.5c0-2.4-1.2-3.6-3.6-3.6c-1.1,0-2,0.3-2.6,0.9S598.1,299.7,598.1,300.9z"/>
		<path class="st2" d="M487.9,352.1c-2.4,0-4.2-0.7-5.6-2.2c-1.4-1.4-2.1-3.5-2.1-6c0-2.6,0.6-4.6,1.9-6.2c1.3-1.5,3-2.3,5.1-2.3
			c2,0,3.6,0.7,4.8,2s1.8,3.1,1.8,5.2v1.5h-11.1c0,1.9,0.5,3.3,1.4,4.3c0.9,1,2.2,1.5,3.8,1.5c1.7,0,3.4-0.4,5.1-1.1v2.2
			c-0.9,0.4-1.7,0.6-2.4,0.8C489.9,352,488.9,352.1,487.9,352.1z M487.2,337.5c-1.3,0-2.3,0.4-3.1,1.3c-0.8,0.8-1.2,2-1.4,3.5h8.4
			c0-1.5-0.3-2.7-1-3.5S488.5,337.5,487.2,337.5z"/>
		<path class="st2" d="M508.5,351.8l-0.5-2.3h-0.1c-0.8,1-1.6,1.7-2.4,2c-0.8,0.4-1.8,0.5-3,0.5c-1.6,0-2.8-0.4-3.7-1.2
			c-0.9-0.8-1.4-2-1.4-3.5c0-3.2,2.6-4.9,7.8-5.1l2.7-0.1v-1c0-1.3-0.3-2.2-0.8-2.8c-0.5-0.6-1.4-0.9-2.6-0.9
			c-1.3,0-2.9,0.4-4.5,1.2l-0.7-1.9c0.8-0.4,1.7-0.8,2.6-1c0.9-0.2,1.9-0.4,2.8-0.4c1.9,0,3.3,0.4,4.3,1.3c0.9,0.8,1.4,2.2,1.4,4.1
			v11H508.5z M503,350.1c1.5,0,2.7-0.4,3.6-1.2c0.9-0.8,1.3-2,1.3-3.5v-1.5l-2.4,0.1c-1.9,0.1-3.3,0.4-4.2,0.9
			c-0.9,0.5-1.3,1.4-1.3,2.5c0,0.9,0.3,1.5,0.8,2C501.3,349.9,502.1,350.1,503,350.1z"/>
		<path class="st2" d="M523.4,335.5c0.7,0,1.4,0.1,1.9,0.2l-0.3,2.3c-0.7-0.1-1.2-0.2-1.8-0.2c-1.3,0-2.4,0.5-3.3,1.6
			c-0.9,1.1-1.4,2.4-1.4,3.9v8.6h-2.4v-16.1h2l0.3,3h0.1c0.6-1,1.3-1.9,2.2-2.4S522.4,335.5,523.4,335.5z"/>
		<path class="st2" d="M539.4,347.4c0,1.5-0.6,2.6-1.7,3.5s-2.7,1.2-4.7,1.2c-2.1,0-3.8-0.3-5-1v-2.3c0.8,0.4,1.6,0.7,2.5,0.9
			c0.9,0.2,1.7,0.3,2.6,0.3c1.3,0,2.2-0.2,2.9-0.6s1-1,1-1.9c0-0.6-0.3-1.2-0.8-1.6c-0.5-0.4-1.6-1-3.2-1.6c-1.5-0.6-2.6-1-3.2-1.5
			c-0.6-0.4-1.1-0.9-1.4-1.4c-0.3-0.5-0.5-1.2-0.5-1.9c0-1.3,0.5-2.3,1.6-3.1s2.5-1.1,4.4-1.1c1.7,0,3.4,0.4,5.1,1.1l-0.9,2
			c-1.6-0.7-3.1-1-4.4-1c-1.2,0-2,0.2-2.6,0.5s-0.9,0.9-0.9,1.5c0,0.4,0.1,0.8,0.3,1.1c0.2,0.3,0.6,0.6,1.1,0.9s1.4,0.7,2.8,1.2
			c1.9,0.7,3.2,1.4,3.9,2.1C539.1,345.5,539.4,346.4,539.4,347.4z"/>
		<path class="st2" d="M559.9,337.6h-4.1v14.2h-2.4v-14.2h-2.9v-1.1l2.9-0.9v-0.9c0-3.9,1.7-5.9,5.2-5.9c0.8,0,1.8,0.2,3,0.5
			l-0.6,1.9c-0.9-0.3-1.7-0.5-2.4-0.5c-0.9,0-1.6,0.3-2,0.9s-0.7,1.6-0.7,2.9v1h4.1V337.6z"/>
		<path class="st2" d="M577.5,343.8c0,2.6-0.7,4.7-2,6.1s-3.1,2.2-5.5,2.2c-1.4,0-2.7-0.3-3.8-1s-2-1.6-2.6-2.9s-0.9-2.7-0.9-4.4
			c0-2.6,0.7-4.7,2-6.1s3.1-2.2,5.4-2.2c2.2,0,4,0.7,5.4,2.2C576.8,339.2,577.5,341.2,577.5,343.8z M565.2,343.8
			c0,2.1,0.4,3.6,1.2,4.7s2,1.6,3.6,1.6s2.8-0.5,3.6-1.6c0.8-1.1,1.2-2.6,1.2-4.7c0-2-0.4-3.6-1.2-4.7c-0.8-1.1-2-1.6-3.7-1.6
			c-1.6,0-2.8,0.5-3.6,1.6S565.2,341.7,565.2,343.8z"/>
		<path class="st2" d="M589.8,335.5c0.7,0,1.4,0.1,1.9,0.2l-0.3,2.3c-0.7-0.1-1.2-0.2-1.8-0.2c-1.3,0-2.4,0.5-3.3,1.6
			c-0.9,1.1-1.4,2.4-1.4,3.9v8.6h-2.4v-16.1h2l0.3,3h0.1c0.6-1,1.3-1.9,2.2-2.4S588.8,335.5,589.8,335.5z"/>
		<path class="st2" d="M487.5,392.1c-2.3,0-4.1-0.7-5.4-2.1c-1.3-1.4-1.9-3.5-1.9-6.1c0-2.7,0.6-4.8,1.9-6.2
			c1.3-1.5,3.1-2.2,5.5-2.2c0.8,0,1.5,0.1,2.3,0.2s1.4,0.4,1.8,0.6l-0.7,2.1c-0.5-0.2-1.1-0.4-1.8-0.5s-1.2-0.2-1.7-0.2
			c-3.3,0-4.9,2.1-4.9,6.2c0,2,0.4,3.5,1.2,4.5c0.8,1.1,2,1.6,3.5,1.6c1.3,0,2.7-0.3,4.1-0.9v2.2
			C490.5,391.8,489.1,392.1,487.5,392.1z"/>
		<path class="st2" d="M498.5,391.8h-2.4V369h2.4V391.8z"/>
		<path class="st2" d="M504.2,371.4c0-0.6,0.1-1,0.4-1.2s0.6-0.4,1-0.4c0.4,0,0.7,0.1,1,0.4s0.4,0.7,0.4,1.2s-0.1,1-0.4,1.2
			s-0.6,0.4-1,0.4c-0.4,0-0.8-0.1-1-0.4S504.2,371.9,504.2,371.4z M506.9,391.8h-2.4v-16.1h2.4V391.8z"/>
		<path class="st2" d="M518,390.1c0.4,0,0.8,0,1.2-0.1s0.7-0.1,1-0.2v1.9c-0.3,0.1-0.7,0.2-1.2,0.3c-0.5,0.1-1,0.1-1.4,0.1
			c-3.1,0-4.7-1.6-4.7-4.9v-9.6h-2.3v-1.2l2.3-1l1-3.4h1.4v3.7h4.7v1.9h-4.7v9.4c0,1,0.2,1.7,0.7,2.2S517.2,390.1,518,390.1z"/>
		<path class="st2" d="M538,383.8c0,2.6-0.7,4.7-2,6.1s-3.1,2.2-5.5,2.2c-1.4,0-2.7-0.3-3.8-1s-2-1.6-2.6-2.9s-0.9-2.7-0.9-4.4
			c0-2.6,0.7-4.7,2-6.1s3.1-2.2,5.4-2.2c2.2,0,4,0.7,5.4,2.2C537.3,379.2,538,381.2,538,383.8z M525.8,383.8c0,2.1,0.4,3.6,1.2,4.7
			s2,1.6,3.6,1.6s2.8-0.5,3.6-1.6c0.8-1.1,1.2-2.6,1.2-4.7c0-2-0.4-3.6-1.2-4.7c-0.8-1.1-2-1.6-3.7-1.6c-1.6,0-2.8,0.5-3.6,1.6
			S525.8,381.7,525.8,383.8z"/>
		<path class="st2" d="M550.3,375.5c0.7,0,1.4,0.1,1.9,0.2l-0.3,2.3c-0.7-0.1-1.2-0.2-1.8-0.2c-1.3,0-2.4,0.5-3.3,1.6
			c-0.9,1.1-1.4,2.4-1.4,3.9v8.6H543v-16.1h2l0.3,3h0.1c0.6-1,1.3-1.9,2.2-2.4S549.3,375.5,550.3,375.5z"/>
		<path class="st2" d="M565.9,391.8l-0.5-2.3h-0.1c-0.8,1-1.6,1.7-2.4,2c-0.8,0.4-1.8,0.5-3,0.5c-1.6,0-2.8-0.4-3.7-1.2
			c-0.9-0.8-1.4-2-1.4-3.5c0-3.2,2.6-4.9,7.8-5.1l2.7-0.1v-1c0-1.3-0.3-2.2-0.8-2.8c-0.5-0.6-1.4-0.9-2.6-0.9
			c-1.3,0-2.9,0.4-4.5,1.2l-0.7-1.9c0.8-0.4,1.7-0.8,2.6-1c0.9-0.2,1.9-0.4,2.8-0.4c1.9,0,3.3,0.4,4.3,1.3c0.9,0.8,1.4,2.2,1.4,4.1
			v11H565.9z M560.4,390.1c1.5,0,2.7-0.4,3.6-1.2c0.9-0.8,1.3-2,1.3-3.5v-1.5l-2.4,0.1c-1.9,0.1-3.3,0.4-4.2,0.9
			c-0.9,0.5-1.3,1.4-1.3,2.5c0,0.9,0.3,1.5,0.8,2C558.7,389.9,559.4,390.1,560.4,390.1z"/>
		<path class="st2" d="M575.9,391.8h-2.4V369h2.4V391.8z"/>
		<path class="st2" d="M491.4,427.4c0,1.5-0.6,2.6-1.7,3.5s-2.7,1.2-4.7,1.2c-2.1,0-3.8-0.3-5-1v-2.3c0.8,0.4,1.6,0.7,2.5,0.9
			c0.9,0.2,1.7,0.3,2.6,0.3c1.3,0,2.2-0.2,2.9-0.6s1-1,1-1.9c0-0.6-0.3-1.2-0.8-1.6c-0.5-0.4-1.6-1-3.2-1.6c-1.5-0.6-2.6-1-3.2-1.5
			c-0.6-0.4-1.1-0.9-1.4-1.4c-0.3-0.5-0.5-1.2-0.5-1.9c0-1.3,0.5-2.3,1.6-3.1s2.5-1.1,4.4-1.1c1.7,0,3.4,0.4,5.1,1.1l-0.9,2
			c-1.6-0.7-3.1-1-4.4-1c-1.2,0-2,0.2-2.6,0.5s-0.9,0.9-0.9,1.5c0,0.4,0.1,0.8,0.3,1.1c0.2,0.3,0.6,0.6,1.1,0.9s1.4,0.7,2.8,1.2
			c1.9,0.7,3.2,1.4,3.9,2.1C491.1,425.5,491.4,426.4,491.4,427.4z"/>
		<path class="st2" d="M501.3,430.1c0.4,0,0.8,0,1.2-0.1s0.7-0.1,1-0.2v1.9c-0.3,0.1-0.7,0.2-1.2,0.3c-0.5,0.1-1,0.1-1.4,0.1
			c-3.1,0-4.7-1.6-4.7-4.9v-9.6H494v-1.2l2.3-1l1-3.4h1.4v3.7h4.7v1.9h-4.7v9.4c0,1,0.2,1.7,0.7,2.2S500.5,430.1,501.3,430.1z"/>
		<path class="st2" d="M507.3,411.4c0-0.6,0.1-1,0.4-1.2s0.6-0.4,1-0.4c0.4,0,0.7,0.1,1,0.4s0.4,0.7,0.4,1.2s-0.1,1-0.4,1.2
			s-0.6,0.4-1,0.4c-0.4,0-0.8-0.1-1-0.4S507.3,411.9,507.3,411.4z M509.9,431.8h-2.4v-16.1h2.4V431.8z"/>
		<path class="st2" d="M536.3,431.8v-10.4c0-1.3-0.3-2.2-0.8-2.9s-1.4-1-2.5-1c-1.5,0-2.6,0.4-3.4,1.3s-1.1,2.2-1.1,4v9H526v-10.4
			c0-1.3-0.3-2.2-0.8-2.9s-1.4-1-2.6-1c-1.5,0-2.6,0.5-3.3,1.4c-0.7,0.9-1.1,2.4-1.1,4.5v8.4h-2.4v-16.1h2l0.4,2.2h0.1
			c0.5-0.8,1.1-1.4,1.9-1.8c0.8-0.4,1.8-0.7,2.8-0.7c2.5,0,4.2,0.9,4.9,2.7h0.1c0.5-0.8,1.2-1.5,2.1-2s1.9-0.7,3.1-0.7
			c1.8,0,3.2,0.5,4.1,1.4c0.9,0.9,1.4,2.4,1.4,4.5v10.5H536.3z"/>
		<path class="st2" d="M546.8,415.7v10.4c0,1.3,0.3,2.3,0.9,2.9s1.5,1,2.8,1c1.7,0,2.9-0.5,3.7-1.4c0.8-0.9,1.2-2.4,1.2-4.5v-8.4
			h2.4v16.1h-2l-0.4-2.2h-0.1c-0.5,0.8-1.2,1.4-2.1,1.8c-0.9,0.4-1.9,0.6-3,0.6c-2,0-3.4-0.5-4.4-1.4c-1-0.9-1.5-2.4-1.5-4.5v-10.5
			H546.8z"/>
		<path class="st2" d="M566.1,431.8h-2.4V409h2.4V431.8z"/>
		<path class="st2" d="M581.8,431.8l-0.5-2.3h-0.1c-0.8,1-1.6,1.7-2.4,2c-0.8,0.4-1.8,0.5-3,0.5c-1.6,0-2.8-0.4-3.7-1.2
			c-0.9-0.8-1.4-2-1.4-3.5c0-3.2,2.6-4.9,7.8-5.1l2.7-0.1v-1c0-1.3-0.3-2.2-0.8-2.8c-0.5-0.6-1.4-0.9-2.6-0.9
			c-1.3,0-2.9,0.4-4.5,1.2l-0.7-1.9c0.8-0.4,1.7-0.8,2.6-1c0.9-0.2,1.9-0.4,2.8-0.4c1.9,0,3.3,0.4,4.3,1.3c0.9,0.8,1.4,2.2,1.4,4.1
			v11H581.8z M576.4,430.1c1.5,0,2.7-0.4,3.6-1.2c0.9-0.8,1.3-2,1.3-3.5v-1.5l-2.4,0.1c-1.9,0.1-3.3,0.4-4.2,0.9
			c-0.9,0.5-1.3,1.4-1.3,2.5c0,0.9,0.3,1.5,0.8,2C574.7,429.9,575.4,430.1,576.4,430.1z"/>
		<path class="st2" d="M594.6,430.1c0.4,0,0.8,0,1.2-0.1s0.7-0.1,1-0.2v1.9c-0.3,0.1-0.7,0.2-1.2,0.3c-0.5,0.1-1,0.1-1.4,0.1
			c-3.1,0-4.7-1.6-4.7-4.9v-9.6h-2.3v-1.2l2.3-1l1-3.4h1.4v3.7h4.7v1.9H592v9.4c0,1,0.2,1.7,0.7,2.2S593.8,430.1,594.6,430.1z"/>
		<path class="st2" d="M600.5,411.4c0-0.6,0.1-1,0.4-1.2s0.6-0.4,1-0.4c0.4,0,0.7,0.1,1,0.4s0.4,0.7,0.4,1.2s-0.1,1-0.4,1.2
			s-0.6,0.4-1,0.4c-0.4,0-0.8-0.1-1-0.4S600.5,411.9,600.5,411.4z M603.2,431.8h-2.4v-16.1h2.4V431.8z"/>
		<path class="st2" d="M622.9,423.8c0,2.6-0.7,4.7-2,6.1s-3.1,2.2-5.5,2.2c-1.4,0-2.7-0.3-3.8-1s-2-1.6-2.6-2.9s-0.9-2.7-0.9-4.4
			c0-2.6,0.7-4.7,2-6.1s3.1-2.2,5.4-2.2c2.2,0,4,0.7,5.4,2.2C622.3,419.2,622.9,421.2,622.9,423.8z M610.7,423.8
			c0,2.1,0.4,3.6,1.2,4.7s2,1.6,3.6,1.6s2.8-0.5,3.6-1.6c0.8-1.1,1.2-2.6,1.2-4.7c0-2-0.4-3.6-1.2-4.7c-0.8-1.1-2-1.6-3.7-1.6
			c-1.6,0-2.8,0.5-3.6,1.6S610.7,421.7,610.7,423.8z"/>
		<path class="st2" d="M638.9,431.8v-10.4c0-1.3-0.3-2.3-0.9-2.9s-1.5-1-2.8-1c-1.7,0-2.9,0.5-3.7,1.4s-1.2,2.4-1.2,4.5v8.4H628
			v-16.1h2l0.4,2.2h0.1c0.5-0.8,1.2-1.4,2.1-1.8s1.9-0.7,3-0.7c1.9,0,3.4,0.5,4.4,1.4s1.5,2.4,1.5,4.5v10.5H638.9z"/>
	</g>
	<g>
		<g>
			<path class="st2" d="M556.2,808.4c0,1.9-0.7,3.4-2.1,4.4s-3.2,1.6-5.6,1.6c-2.5,0-4.5-0.3-5.9-1V811c0.9,0.4,1.8,0.7,2.9,0.9
				s2.1,0.3,3.1,0.3c1.7,0,2.9-0.3,3.8-0.9s1.3-1.5,1.3-2.6c0-0.7-0.1-1.4-0.4-1.8c-0.3-0.5-0.8-0.9-1.5-1.3
				c-0.7-0.4-1.8-0.9-3.2-1.4c-2-0.7-3.4-1.6-4.3-2.5c-0.9-1-1.3-2.3-1.3-3.8c0-1.7,0.6-3,1.9-3.9s2.9-1.5,4.9-1.5
				c2.1,0,4.1,0.4,5.9,1.2l-0.8,2.2c-1.8-0.7-3.5-1.1-5.2-1.1c-1.3,0-2.3,0.3-3.1,0.8s-1.1,1.4-1.1,2.4c0,0.7,0.1,1.4,0.4,1.8
				s0.7,0.9,1.4,1.3c0.7,0.4,1.6,0.8,3,1.3c2.2,0.8,3.8,1.7,4.6,2.6C555.8,805.7,556.2,806.9,556.2,808.4z"/>
			<path class="st2" d="M574.9,806c0,2.6-0.7,4.7-2,6.1s-3.1,2.2-5.5,2.2c-1.4,0-2.7-0.3-3.8-1s-2-1.6-2.6-2.9s-0.9-2.7-0.9-4.4
				c0-2.6,0.7-4.7,2-6.1s3.1-2.2,5.4-2.2c2.2,0,4,0.7,5.4,2.2C574.2,801.4,574.9,803.5,574.9,806z M562.6,806c0,2.1,0.4,3.6,1.2,4.7
				s2,1.6,3.6,1.6s2.8-0.5,3.6-1.6c0.8-1.1,1.2-2.6,1.2-4.7c0-2-0.4-3.6-1.2-4.7c-0.8-1.1-2-1.6-3.7-1.6c-1.6,0-2.8,0.5-3.6,1.6
				S562.6,803.9,562.6,806z"/>
			<path class="st2" d="M587.1,799.9H583v14.2h-2.4v-14.2h-2.9v-1.1l2.9-0.9V797c0-3.9,1.7-5.9,5.2-5.9c0.8,0,1.8,0.2,3,0.5
				l-0.6,1.9c-0.9-0.3-1.7-0.5-2.4-0.5c-0.9,0-1.6,0.3-2,0.9s-0.7,1.6-0.7,2.9v1h4.1V799.9z"/>
			<path class="st2" d="M596,812.3c0.4,0,0.8,0,1.2-0.1s0.7-0.1,1-0.2v1.9c-0.3,0.1-0.7,0.2-1.2,0.3c-0.5,0.1-1,0.1-1.4,0.1
				c-3.1,0-4.7-1.6-4.7-4.9v-9.6h-2.3v-1.2l2.3-1l1-3.4h1.4v3.7h4.7v1.9h-4.7v9.4c0,1,0.2,1.7,0.7,2.2S595.2,812.3,596,812.3z"/>
			<path class="st2" d="M511,854.1l-0.5-2.3h-0.1c-0.8,1-1.6,1.7-2.4,2c-0.8,0.4-1.8,0.5-3,0.5c-1.6,0-2.8-0.4-3.7-1.2
				c-0.9-0.8-1.4-2-1.4-3.5c0-3.2,2.6-4.9,7.8-5.1l2.7-0.1v-1c0-1.3-0.3-2.2-0.8-2.8c-0.5-0.6-1.4-0.9-2.6-0.9
				c-1.3,0-2.9,0.4-4.5,1.2l-0.7-1.9c0.8-0.4,1.7-0.8,2.6-1c0.9-0.2,1.9-0.4,2.8-0.4c1.9,0,3.3,0.4,4.3,1.3c0.9,0.8,1.4,2.2,1.4,4.1
				v11H511z M505.5,852.3c1.5,0,2.7-0.4,3.6-1.2c0.9-0.8,1.3-2,1.3-3.5v-1.4l-2.4,0.1c-1.9,0.1-3.3,0.4-4.2,0.9
				c-0.9,0.5-1.3,1.4-1.3,2.5c0,0.9,0.3,1.5,0.8,2C503.8,852.1,504.5,852.3,505.5,852.3z"/>
			<path class="st2" d="M529.5,854.1v-10.4c0-1.3-0.3-2.3-0.9-2.9s-1.5-1-2.8-1c-1.7,0-2.9,0.5-3.7,1.4s-1.2,2.4-1.2,4.5v8.4h-2.4
				V838h2l0.4,2.2h0.1c0.5-0.8,1.2-1.4,2.1-1.8s1.9-0.7,3-0.7c1.9,0,3.4,0.5,4.4,1.4s1.5,2.4,1.5,4.5v10.5H529.5z"/>
			<path class="st2" d="M548.6,851.9h-0.1c-1.1,1.6-2.8,2.4-5,2.4c-2.1,0-3.7-0.7-4.9-2.2c-1.2-1.4-1.8-3.5-1.8-6.1s0.6-4.7,1.8-6.2
				s2.8-2.2,4.9-2.2c2.2,0,3.8,0.8,5,2.4h0.2l-0.1-1.2l-0.1-1.1v-6.5h2.4v22.8h-2L548.6,851.9z M543.7,852.3c1.7,0,2.9-0.5,3.6-1.4
				c0.7-0.9,1.1-2.4,1.1-4.4v-0.5c0-2.3-0.4-3.9-1.1-4.9c-0.8-1-2-1.5-3.6-1.5c-1.4,0-2.5,0.6-3.3,1.7c-0.8,1.1-1.1,2.7-1.1,4.7
				c0,2.1,0.4,3.6,1.1,4.6S542.3,852.3,543.7,852.3z"/>
			<path class="st2" d="M572.6,839.9h-4.1v14.2h-2.4v-14.2h-2.9v-1.1l2.9-0.9V837c0-3.9,1.7-5.9,5.2-5.9c0.8,0,1.8,0.2,3,0.5
				l-0.6,1.9c-0.9-0.3-1.7-0.5-2.4-0.5c-0.9,0-1.6,0.3-2,0.9s-0.7,1.6-0.7,2.9v1h4.1V839.9z M578,854.1h-2.4v-22.8h2.4V854.1z"/>
			<path class="st2" d="M590.6,854.4c-2.4,0-4.2-0.7-5.6-2.2c-1.4-1.4-2.1-3.5-2.1-6c0-2.6,0.6-4.6,1.9-6.2c1.3-1.5,3-2.3,5.1-2.3
				c2,0,3.6,0.7,4.8,2s1.8,3.1,1.8,5.2v1.5h-11.1c0,1.9,0.5,3.3,1.4,4.3c0.9,1,2.2,1.5,3.8,1.5c1.7,0,3.4-0.4,5.1-1.1v2.2
				c-0.9,0.4-1.7,0.6-2.4,0.8C592.6,854.3,591.7,854.4,590.6,854.4z M590,839.7c-1.3,0-2.3,0.4-3.1,1.3c-0.8,0.8-1.2,2-1.4,3.5h8.4
				c0-1.5-0.3-2.7-1-3.5S591.2,839.7,590,839.7z"/>
			<path class="st2" d="M605.3,845.8l-5.6-7.8h2.8l4.2,6.2l4.2-6.2h2.7l-5.6,7.8l5.9,8.2h-2.8l-4.5-6.5l-4.5,6.5h-2.8L605.3,845.8z"
				/>
			<path class="st2" d="M617.7,833.7c0-0.6,0.1-1,0.4-1.2s0.6-0.4,1-0.4c0.4,0,0.7,0.1,1,0.4s0.4,0.7,0.4,1.2s-0.1,1-0.4,1.2
				s-0.6,0.4-1,0.4c-0.4,0-0.8-0.1-1-0.4S617.7,834.2,617.7,833.7z M620.3,854.1h-2.4V838h2.4V854.1z"/>
			<path class="st2" d="M633.7,837.7c2.1,0,3.7,0.7,4.9,2.2c1.2,1.4,1.8,3.5,1.8,6.1s-0.6,4.7-1.8,6.1c-1.2,1.5-2.8,2.2-4.9,2.2
				c-1,0-2-0.2-2.9-0.6c-0.9-0.4-1.6-1-2.2-1.8h-0.2l-0.5,2.1h-1.7v-22.8h2.4v5.5c0,1.2,0,2.4-0.1,3.3h0.1
				C629.8,838.5,631.5,837.7,633.7,837.7z M633.4,839.8c-1.7,0-2.9,0.5-3.6,1.4s-1.1,2.6-1.1,4.8s0.4,3.9,1.1,4.8s2,1.5,3.6,1.5
				c1.5,0,2.6-0.5,3.3-1.6s1.1-2.7,1.1-4.7c0-2.1-0.4-3.6-1.1-4.7S634.9,839.8,633.4,839.8z"/>
			<path class="st2" d="M647.8,854.1h-2.4v-22.8h2.4V854.1z"/>
			<path class="st2" d="M660.5,854.4c-2.4,0-4.2-0.7-5.6-2.2c-1.4-1.4-2.1-3.5-2.1-6c0-2.6,0.6-4.6,1.9-6.2c1.3-1.5,3-2.3,5.1-2.3
				c2,0,3.6,0.7,4.8,2s1.8,3.1,1.8,5.2v1.5h-11.1c0,1.9,0.5,3.3,1.4,4.3c0.9,1,2.2,1.5,3.8,1.5c1.7,0,3.4-0.4,5.1-1.1v2.2
				c-0.9,0.4-1.7,0.6-2.4,0.8C662.5,854.3,661.6,854.4,660.5,854.4z M659.8,839.7c-1.3,0-2.3,0.4-3.1,1.3c-0.8,0.8-1.2,2-1.4,3.5
				h8.4c0-1.5-0.3-2.7-1-3.5S661.1,839.7,659.8,839.7z"/>
			<path class="st2" d="M521.5,894.1v-10.4c0-1.3-0.3-2.2-0.8-2.9s-1.4-1-2.5-1c-1.5,0-2.6,0.4-3.4,1.3s-1.1,2.2-1.1,4v9h-2.4v-10.4
				c0-1.3-0.3-2.2-0.8-2.9s-1.4-1-2.6-1c-1.5,0-2.6,0.5-3.3,1.4c-0.7,0.9-1.1,2.4-1.1,4.5v8.4h-2.4V878h2l0.4,2.2h0.1
				c0.5-0.8,1.1-1.4,1.9-1.8c0.8-0.4,1.8-0.7,2.8-0.7c2.5,0,4.2,0.9,4.9,2.7h0.1c0.5-0.8,1.2-1.5,2.1-2s1.9-0.7,3.1-0.7
				c1.8,0,3.2,0.5,4.1,1.4c0.9,0.9,1.4,2.4,1.4,4.5v10.5H521.5z"/>
			<path class="st2" d="M539.6,894.1l-0.5-2.3H539c-0.8,1-1.6,1.7-2.4,2c-0.8,0.4-1.8,0.5-3,0.5c-1.6,0-2.8-0.4-3.7-1.2
				c-0.9-0.8-1.4-2-1.4-3.5c0-3.2,2.6-4.9,7.8-5.1l2.7-0.1v-1c0-1.3-0.3-2.2-0.8-2.8c-0.5-0.6-1.4-0.9-2.6-0.9
				c-1.3,0-2.9,0.4-4.5,1.2l-0.7-1.9c0.8-0.4,1.7-0.8,2.6-1c0.9-0.2,1.9-0.4,2.8-0.4c1.9,0,3.3,0.4,4.3,1.3c0.9,0.8,1.4,2.2,1.4,4.1
				v11H539.6z M534.1,892.3c1.5,0,2.7-0.4,3.6-1.2c0.9-0.8,1.3-2,1.3-3.5v-1.4l-2.4,0.1c-1.9,0.1-3.3,0.4-4.2,0.9
				c-0.9,0.5-1.3,1.4-1.3,2.5c0,0.9,0.3,1.5,0.8,2C532.4,892.1,533.2,892.3,534.1,892.3z"/>
			<path class="st2" d="M552.4,892.3c0.4,0,0.8,0,1.2-0.1s0.7-0.1,1-0.2v1.9c-0.3,0.1-0.7,0.2-1.2,0.3c-0.5,0.1-1,0.1-1.4,0.1
				c-3.1,0-4.7-1.6-4.7-4.9v-9.6H545v-1.2l2.3-1l1-3.4h1.4v3.7h4.7v1.9h-4.7v9.4c0,1,0.2,1.7,0.7,2.2S551.6,892.3,552.4,892.3z"/>
			<path class="st2" d="M565.3,894.4c-2.4,0-4.2-0.7-5.6-2.2c-1.4-1.4-2.1-3.5-2.1-6c0-2.6,0.6-4.6,1.9-6.2c1.3-1.5,3-2.3,5.1-2.3
				c2,0,3.6,0.7,4.8,2s1.8,3.1,1.8,5.2v1.5h-11.1c0,1.9,0.5,3.3,1.4,4.3c0.9,1,2.2,1.5,3.8,1.5c1.7,0,3.4-0.4,5.1-1.1v2.2
				c-0.9,0.4-1.7,0.6-2.4,0.8C567.3,894.3,566.4,894.4,565.3,894.4z M564.6,879.7c-1.3,0-2.3,0.4-3.1,1.3c-0.8,0.8-1.2,2-1.4,3.5
				h8.4c0-1.5-0.3-2.7-1-3.5S565.9,879.7,564.6,879.7z"/>
			<path class="st2" d="M583.4,877.7c0.7,0,1.4,0.1,1.9,0.2l-0.3,2.3c-0.7-0.1-1.2-0.2-1.8-0.2c-1.3,0-2.4,0.5-3.3,1.6
				c-0.9,1.1-1.4,2.4-1.4,3.9v8.6h-2.4V878h2l0.3,3h0.1c0.6-1,1.3-1.9,2.2-2.4S582.4,877.7,583.4,877.7z"/>
			<path class="st2" d="M588.9,873.7c0-0.6,0.1-1,0.4-1.2s0.6-0.4,1-0.4c0.4,0,0.7,0.1,1,0.4s0.4,0.7,0.4,1.2s-0.1,1-0.4,1.2
				s-0.6,0.4-1,0.4c-0.4,0-0.8-0.1-1-0.4S588.9,874.2,588.9,873.7z M591.5,894.1h-2.4V878h2.4V894.1z"/>
			<path class="st2" d="M607.3,894.1l-0.5-2.3h-0.1c-0.8,1-1.6,1.7-2.4,2c-0.8,0.4-1.8,0.5-3,0.5c-1.6,0-2.8-0.4-3.7-1.2
				c-0.9-0.8-1.4-2-1.4-3.5c0-3.2,2.6-4.9,7.8-5.1l2.7-0.1v-1c0-1.3-0.3-2.2-0.8-2.8c-0.5-0.6-1.4-0.9-2.6-0.9
				c-1.3,0-2.9,0.4-4.5,1.2l-0.7-1.9c0.8-0.4,1.7-0.8,2.6-1c0.9-0.2,1.9-0.4,2.8-0.4c1.9,0,3.3,0.4,4.3,1.3c0.9,0.8,1.4,2.2,1.4,4.1
				v11H607.3z M601.8,892.3c1.5,0,2.7-0.4,3.6-1.2c0.9-0.8,1.3-2,1.3-3.5v-1.4l-2.4,0.1c-1.9,0.1-3.3,0.4-4.2,0.9
				c-0.9,0.5-1.3,1.4-1.3,2.5c0,0.9,0.3,1.5,0.8,2C600.1,892.1,600.8,892.3,601.8,892.3z"/>
			<path class="st2" d="M617.3,894.1h-2.4v-22.8h2.4V894.1z"/>
		</g>
		<g>
			<path class="st2" d="M507.8,815.5c-0.8,0-1.5-0.3-2.1-0.9l-7.4-7.4c-1.2-1.2-1.2-3.1,0-4.2c1.2-1.2,3.1-1.2,4.2,0l5.3,5.3
				l17.6-17.6c1.2-1.2,3.1-1.2,4.2,0c1.2,1.2,1.2,3.1,0,4.2l-19.7,19.7C509.3,815.2,508.5,815.5,507.8,815.5z"/>
		</g>
	</g>
	<g>
		<g>
			<g>
				<path class="st2" d="M132.5,435c-1.7,0-3-1.3-3-3V282c0-1.7,1.3-3,3-3s3,1.3,3,3v150C135.5,433.7,134.1,435,132.5,435z"/>
			</g>
			<g>
				<g>
					<path class="st2" d="M142.5,287.9c-0.8,0-1.5-0.3-2.1-0.9l-7.9-7.9l-7.9,7.9c-1.2,1.2-3.1,1.2-4.2,0c-1.2-1.2-1.2-3.1,0-4.2
						l9.9-9.9c0.6-0.6,1.3-0.9,2.1-0.9c0.8,0,1.7,0.3,2.3,0.9l9.9,9.9c1.2,1.2,1.2,3.1,0,4.2C144,287.6,143.2,287.9,142.5,287.9z"/>
				</g>
			</g>
		</g>
		<g>
			<g>
				<path class="st2" d="M132.5,816c-1.7,0-3-1.3-3-3V663c0-1.7,1.3-3,3-3s3,1.3,3,3v150C135.5,814.7,134.1,816,132.5,816z"/>
			</g>
			<g>
				<g>
					<path class="st2" d="M132.6,823c-0.8,0-1.7-0.3-2.3-0.9l-9.9-9.9c-1.2-1.2-1.2-3.1,0-4.2c1.2-1.2,3.1-1.2,4.2,0l7.9,7.9
						l7.9-7.9c1.2-1.2,3.1-1.2,4.2,0c1.2,1.2,1.2,3.1,0,4.2l-9.9,9.9C134.1,822.7,133.4,823,132.6,823z"/>
				</g>
			</g>
		</g>
		<g>
			<path class="st2" d="M111.9,493.1h-2.5v-21.4h11.9v2.2h-9.4v7.8h8.9v2.2h-8.9V493.1z"/>
			<path class="st2" d="M132.6,476.7c0.7,0,1.4,0.1,1.9,0.2l-0.3,2.3c-0.7-0.1-1.2-0.2-1.8-0.2c-1.3,0-2.4,0.5-3.3,1.6
				s-1.4,2.4-1.4,3.9v8.6h-2.4V477h2l0.3,3h0.1c0.6-1,1.3-1.9,2.2-2.4S131.6,476.7,132.6,476.7z"/>
			<path class="st2" d="M152.2,485c0,2.6-0.7,4.7-2,6.1s-3.1,2.2-5.5,2.2c-1.4,0-2.7-0.3-3.8-1s-2-1.6-2.6-2.9s-0.9-2.7-0.9-4.4
				c0-2.6,0.7-4.7,2-6.1s3.1-2.2,5.4-2.2c2.2,0,4,0.7,5.4,2.2S152.2,482.5,152.2,485z M139.9,485c0,2.1,0.4,3.6,1.2,4.7
				s2,1.6,3.6,1.6s2.8-0.5,3.6-1.6s1.2-2.6,1.2-4.7c0-2-0.4-3.6-1.2-4.7s-2-1.6-3.7-1.6c-1.6,0-2.8,0.5-3.6,1.6
				S139.9,482.9,139.9,485z"/>
			<path class="st2" d="M177.6,493.1v-10.4c0-1.3-0.3-2.2-0.8-2.9s-1.4-1-2.5-1c-1.5,0-2.6,0.4-3.4,1.3s-1.1,2.2-1.1,4v9h-2.4v-10.4
				c0-1.3-0.3-2.2-0.8-2.9s-1.4-1-2.6-1c-1.5,0-2.6,0.5-3.3,1.4s-1.1,2.4-1.1,4.5v8.4h-2.4V477h2l0.4,2.2h0.1
				c0.5-0.8,1.1-1.4,1.9-1.8s1.8-0.7,2.8-0.7c2.5,0,4.2,0.9,4.9,2.7h0.1c0.5-0.8,1.2-1.5,2.1-2s1.9-0.7,3.1-0.7
				c1.8,0,3.2,0.5,4.1,1.4s1.4,2.4,1.4,4.5v10.5H177.6z"/>
			<path class="st2" d="M202.3,493.1h-2.4v-15.3c0-1.3,0-2.5,0.1-3.6c-0.2,0.2-0.4,0.4-0.7,0.6s-1.4,1.2-3.5,2.9l-1.3-1.7l5.7-4.4
				h2.1V493.1z"/>
			<path class="st2" d="M214.2,471.6l0.2,0.3c-0.3,1-0.6,2.1-1.1,3.4s-1,2.5-1.5,3.6h-1.8c0.7-2.8,1.2-5.2,1.5-7.3H214.2z
				 M219.6,471.6l0.2,0.3c-0.2,0.9-0.6,2-1.1,3.3s-1,2.5-1.5,3.7h-1.8c0.3-1,0.5-2.2,0.9-3.7s0.5-2.7,0.7-3.6H219.6z"/>
			<path class="st2" d="M114.3,531.3c0.4,0,0.8,0,1.2-0.1s0.7-0.1,1-0.2v1.9c-0.3,0.1-0.7,0.2-1.2,0.3s-1,0.1-1.4,0.1
				c-3.1,0-4.7-1.6-4.7-4.9v-9.6H107v-1.2l2.3-1l1-3.4h1.4v3.7h4.7v1.9h-4.7v9.4c0,1,0.2,1.7,0.7,2.2S113.5,531.3,114.3,531.3z"/>
			<path class="st2" d="M134.3,525c0,2.6-0.7,4.7-2,6.1s-3.1,2.2-5.5,2.2c-1.4,0-2.7-0.3-3.8-1s-2-1.6-2.6-2.9s-0.9-2.7-0.9-4.4
				c0-2.6,0.7-4.7,2-6.1s3.1-2.2,5.4-2.2c2.2,0,4,0.7,5.4,2.2S134.3,522.5,134.3,525z M122,525c0,2.1,0.4,3.6,1.2,4.7s2,1.6,3.6,1.6
				s2.8-0.5,3.6-1.6s1.2-2.6,1.2-4.7c0-2-0.4-3.6-1.2-4.7s-2-1.6-3.7-1.6c-1.6,0-2.8,0.5-3.6,1.6S122,522.9,122,525z"/>
			<path class="st2" d="M153.8,511.3c2,0,3.5,0.5,4.6,1.4s1.7,2.2,1.7,3.8c0,1.1-0.3,2-1,2.9s-1.7,1.7-3.1,2.4
				c1.7,0.8,3,1.7,3.7,2.6s1.1,2,1.1,3.2c0,1.8-0.6,3.2-1.9,4.3s-2.9,1.6-5.1,1.6c-2.3,0-4-0.5-5.3-1.5s-1.8-2.4-1.8-4.3
				c0-2.5,1.5-4.4,4.5-5.7c-1.3-0.8-2.3-1.6-2.9-2.5s-0.9-1.9-0.9-3c0-1.6,0.6-2.8,1.7-3.7S151.9,511.3,153.8,511.3z M149.2,527.7
				c0,1.2,0.4,2.1,1.2,2.7s2,1,3.4,1c1.5,0,2.6-0.3,3.4-1s1.2-1.6,1.2-2.8c0-0.9-0.4-1.8-1.1-2.5s-2.1-1.5-4-2.1
				c-1.5,0.6-2.5,1.3-3.2,2.1S149.2,526.6,149.2,527.7z M153.8,513.3c-1.2,0-2.2,0.3-2.9,0.9s-1,1.4-1,2.3c0,0.9,0.3,1.7,0.9,2.3
				s1.6,1.3,3.2,1.9c1.4-0.6,2.4-1.2,3-1.9s0.9-1.5,0.9-2.4c0-1-0.4-1.8-1.1-2.4S155,513.3,153.8,513.3z"/>
			<path class="st2" d="M167.7,511.6l0.2,0.3c-0.3,1-0.6,2.1-1.1,3.4s-1,2.5-1.5,3.6h-1.8c0.7-2.8,1.2-5.2,1.5-7.3H167.7z
				 M173.1,511.6l0.2,0.3c-0.2,0.9-0.6,2-1.1,3.3s-1,2.5-1.5,3.7h-1.8c0.3-1,0.5-2.2,0.9-3.7s0.5-2.7,0.7-3.6H173.1z"/>
			<path class="st2" d="M108.9,552.7c0-0.6,0.1-1,0.4-1.2s0.6-0.4,1-0.4c0.4,0,0.7,0.1,1,0.4s0.4,0.7,0.4,1.2s-0.1,1-0.4,1.2
				s-0.6,0.4-1,0.4c-0.4,0-0.8-0.1-1-0.4S108.9,553.2,108.9,552.7z M111.5,573.1h-2.4V557h2.4V573.1z"/>
			<path class="st2" d="M128.4,573.1v-10.4c0-1.3-0.3-2.3-0.9-2.9s-1.5-1-2.8-1c-1.7,0-2.9,0.5-3.7,1.4s-1.2,2.4-1.2,4.5v8.4h-2.4
				V557h2l0.4,2.2h0.1c0.5-0.8,1.2-1.4,2.1-1.8s1.9-0.7,3-0.7c1.9,0,3.4,0.5,4.4,1.4s1.5,2.4,1.5,4.5v10.5H128.4z"/>
			<path class="st2" d="M146.9,568.7c0,1.5-0.6,2.6-1.7,3.5s-2.7,1.2-4.7,1.2c-2.1,0-3.8-0.3-5-1v-2.3c0.8,0.4,1.6,0.7,2.5,0.9
				s1.7,0.3,2.6,0.3c1.3,0,2.2-0.2,2.9-0.6s1-1,1-1.9c0-0.6-0.3-1.2-0.8-1.6s-1.6-1-3.2-1.6c-1.5-0.6-2.6-1-3.2-1.5
				s-1.1-0.9-1.4-1.4s-0.5-1.2-0.5-1.9c0-1.3,0.5-2.3,1.6-3.1s2.5-1.1,4.4-1.1c1.7,0,3.4,0.4,5.1,1.1l-0.9,2c-1.6-0.7-3.1-1-4.4-1
				c-1.2,0-2,0.2-2.6,0.5s-0.9,0.9-0.9,1.5c0,0.4,0.1,0.8,0.3,1.1s0.6,0.6,1.1,0.9s1.4,0.7,2.8,1.2c1.9,0.7,3.2,1.4,3.9,2.1
				S146.9,567.6,146.9,568.7z"/>
			<path class="st2" d="M158.4,573.4c-2.4,0-4.2-0.7-5.6-2.2s-2.1-3.5-2.1-6c0-2.6,0.6-4.6,1.9-6.2s3-2.3,5.1-2.3c2,0,3.6,0.7,4.8,2
				s1.8,3.1,1.8,5.2v1.5h-11.1c0,1.9,0.5,3.3,1.4,4.3s2.2,1.5,3.8,1.5c1.7,0,3.4-0.4,5.1-1.1v2.2c-0.9,0.4-1.7,0.6-2.4,0.8
				S159.5,573.4,158.4,573.4z M157.8,558.7c-1.3,0-2.3,0.4-3.1,1.3s-1.2,2-1.4,3.5h8.4c0-1.5-0.3-2.7-1-3.5S159,558.7,157.8,558.7z"
				/>
			<path class="st2" d="M176.5,556.7c0.7,0,1.4,0.1,1.9,0.2l-0.3,2.3c-0.7-0.1-1.2-0.2-1.8-0.2c-1.3,0-2.4,0.5-3.3,1.6
				s-1.4,2.4-1.4,3.9v8.6h-2.4V557h2l0.3,3h0.1c0.6-1,1.3-1.9,2.2-2.4S175.5,556.7,176.5,556.7z"/>
			<path class="st2" d="M187.4,571.3c0.4,0,0.8,0,1.2-0.1s0.7-0.1,1-0.2v1.9c-0.3,0.1-0.7,0.2-1.2,0.3s-1,0.1-1.4,0.1
				c-3.1,0-4.7-1.6-4.7-4.9v-9.6h-2.3v-1.2l2.3-1l1-3.4h1.4v3.7h4.7v1.9h-4.7v9.4c0,1,0.2,1.7,0.7,2.2S186.6,571.3,187.4,571.3z"/>
			<path class="st2" d="M203.4,573.1l-0.5-2.3h-0.1c-0.8,1-1.6,1.7-2.4,2s-1.8,0.5-3,0.5c-1.6,0-2.8-0.4-3.7-1.2s-1.4-2-1.4-3.5
				c0-3.2,2.6-4.9,7.8-5.1l2.7-0.1v-1c0-1.3-0.3-2.2-0.8-2.8s-1.4-0.9-2.6-0.9c-1.3,0-2.9,0.4-4.5,1.2l-0.7-1.9
				c0.8-0.4,1.7-0.8,2.6-1s1.9-0.4,2.8-0.4c1.9,0,3.3,0.4,4.3,1.3s1.4,2.2,1.4,4.1v11H203.4z M197.9,571.3c1.5,0,2.7-0.4,3.6-1.2
				s1.3-2,1.3-3.5v-1.5l-2.4,0.1c-1.9,0.1-3.3,0.4-4.2,0.9s-1.3,1.4-1.3,2.5c0,0.9,0.3,1.5,0.8,2S197,571.3,197.9,571.3z"/>
			<path class="st2" d="M218.5,556.7c2.1,0,3.7,0.7,4.9,2.2s1.8,3.5,1.8,6.1s-0.6,4.7-1.8,6.1s-2.8,2.2-4.9,2.2c-1,0-2-0.2-2.9-0.6
				s-1.6-1-2.2-1.8h-0.2l-0.5,2.1H211v-22.8h2.4v5.5c0,1.2,0,2.4-0.1,3.3h0.1C214.6,557.5,216.2,556.7,218.5,556.7z M218.1,558.8
				c-1.7,0-2.9,0.5-3.6,1.4s-1.1,2.6-1.1,4.8s0.4,3.9,1.1,4.8s2,1.5,3.6,1.5c1.5,0,2.6-0.5,3.3-1.6s1.1-2.7,1.1-4.7
				c0-2.1-0.4-3.6-1.1-4.7S219.6,558.8,218.1,558.8z"/>
			<path class="st2" d="M232.6,573.1h-2.4v-22.8h2.4V573.1z"/>
			<path class="st2" d="M245.2,573.4c-2.4,0-4.2-0.7-5.6-2.2s-2.1-3.5-2.1-6c0-2.6,0.6-4.6,1.9-6.2s3-2.3,5.1-2.3c2,0,3.6,0.7,4.8,2
				s1.8,3.1,1.8,5.2v1.5h-11.1c0,1.9,0.5,3.3,1.4,4.3s2.2,1.5,3.8,1.5c1.7,0,3.4-0.4,5.1-1.1v2.2c-0.9,0.4-1.7,0.6-2.4,0.8
				S246.3,573.4,245.2,573.4z M244.6,558.7c-1.3,0-2.3,0.4-3.1,1.3s-1.2,2-1.4,3.5h8.4c0-1.5-0.3-2.7-1-3.5S245.9,558.7,244.6,558.7
				z"/>
			<path class="st2" d="M111.5,613.1h-2.4v-22.8h2.4V613.1z"/>
			<path class="st2" d="M124.2,613.4c-2.4,0-4.2-0.7-5.6-2.2s-2.1-3.5-2.1-6c0-2.6,0.6-4.6,1.9-6.2s3-2.3,5.1-2.3c2,0,3.6,0.7,4.8,2
				s1.8,3.1,1.8,5.2v1.5H119c0,1.9,0.5,3.3,1.4,4.3s2.2,1.5,3.8,1.5c1.7,0,3.4-0.4,5.1-1.1v2.2c-0.9,0.4-1.7,0.6-2.4,0.8
				S125.3,613.4,124.2,613.4z M123.5,598.7c-1.3,0-2.3,0.4-3.1,1.3s-1.2,2-1.4,3.5h8.4c0-1.5-0.3-2.7-1-3.5S124.8,598.7,123.5,598.7
				z"/>
			<path class="st2" d="M146,613.1v-10.4c0-1.3-0.3-2.3-0.9-2.9s-1.5-1-2.8-1c-1.7,0-2.9,0.5-3.7,1.4s-1.2,2.4-1.2,4.5v8.4H135V597
				h2l0.4,2.2h0.1c0.5-0.8,1.2-1.4,2.1-1.8s1.9-0.7,3-0.7c1.9,0,3.4,0.5,4.4,1.4s1.5,2.4,1.5,4.5v10.5H146z"/>
			<path class="st2" d="M167.3,597v1.5l-3,0.4c0.3,0.3,0.5,0.8,0.7,1.3s0.3,1.2,0.3,1.9c0,1.6-0.5,2.8-1.6,3.8s-2.5,1.4-4.4,1.4
				c-0.5,0-0.9,0-1.3-0.1c-1,0.5-1.6,1.2-1.6,2.1c0,0.4,0.2,0.8,0.5,1s1,0.3,1.9,0.3h2.8c1.7,0,3.1,0.4,4,1.1s1.4,1.8,1.4,3.2
				c0,1.8-0.7,3.1-2.1,4.1s-3.5,1.4-6.2,1.4c-2.1,0-3.7-0.4-4.9-1.2s-1.7-1.9-1.7-3.3c0-1,0.3-1.8,0.9-2.5s1.5-1.2,2.6-1.5
				c-0.4-0.2-0.8-0.5-1-0.9s-0.4-0.8-0.4-1.4c0-0.6,0.2-1.1,0.5-1.5s0.8-0.9,1.5-1.3c-0.8-0.3-1.5-0.9-2-1.7s-0.8-1.8-0.8-2.8
				c0-1.8,0.5-3.1,1.6-4.1s2.5-1.4,4.5-1.4c0.8,0,1.6,0.1,2.3,0.3H167.3z M154.5,615.8c0,0.9,0.4,1.5,1.1,2s1.8,0.7,3.1,0.7
				c2,0,3.6-0.3,4.5-0.9s1.5-1.4,1.5-2.5c0-0.9-0.3-1.5-0.8-1.8s-1.5-0.5-3-0.5H158c-1.1,0-2,0.3-2.6,0.8S154.5,614.8,154.5,615.8z
				 M155.8,602.1c0,1.1,0.3,2,1,2.5s1.5,0.9,2.7,0.9c2.4,0,3.6-1.2,3.6-3.5c0-2.4-1.2-3.6-3.6-3.6c-1.1,0-2,0.3-2.6,0.9
				S155.8,600.9,155.8,602.1z"/>
			<path class="st2" d="M176.5,611.3c0.4,0,0.8,0,1.2-0.1s0.7-0.1,1-0.2v1.9c-0.3,0.1-0.7,0.2-1.2,0.3s-1,0.1-1.4,0.1
				c-3.1,0-4.7-1.6-4.7-4.9v-9.6h-2.3v-1.2l2.3-1l1-3.4h1.4v3.7h4.7v1.9H174v9.4c0,1,0.2,1.7,0.7,2.2S175.7,611.3,176.5,611.3z"/>
			<path class="st2" d="M193.7,613.1v-10.4c0-1.3-0.3-2.3-0.9-2.9s-1.5-1-2.8-1c-1.7,0-2.9,0.5-3.7,1.4s-1.2,2.4-1.2,4.5v8.4h-2.4
				v-22.8h2.4v6.9c0,0.8,0,1.5-0.1,2.1h0.1c0.5-0.8,1.2-1.4,2-1.8s1.9-0.7,3-0.7c2,0,3.4,0.5,4.4,1.4s1.5,2.4,1.5,4.4v10.5H193.7z"
				/>
		</g>
	</g>
</g>
</svg>
