<?xml version="1.0" encoding="utf-8"?>
<!-- Generator: Adobe Illustrator 22.0.1, SVG Export Plug-In . SVG Version: 6.00 Build 0)  -->
<svg version="1.1" id="Layer_1" xmlns="http://www.w3.org/2000/svg" xmlns:xlink="http://www.w3.org/1999/xlink" x="0px" y="0px"
	 viewBox="0 0 150 150" style="enable-background:new 0 0 150 150;" xml:space="preserve">
<style type="text/css">
	.st0{fill:#E3338B;}
</style>
<g>
	<path class="st0" d="M107.5,68.6c0,0.5-0.3,1.1-1,1.7L92.3,83l3.4,18c0,0.2,0,0.4,0,0.7c0,0.5-0.1,0.9-0.4,1.3
		c-0.3,0.3-0.7,0.5-1.2,0.5c-0.5,0-1-0.1-1.6-0.4L75,94.6l-17.5,8.5c-0.6,0.3-1.1,0.4-1.6,0.4c-0.5,0-1-0.2-1.2-0.5
		c-0.3-0.3-0.4-0.8-0.4-1.3c0-0.1,0-0.4,0.1-0.7l3.4-18L43.5,70.3c-0.7-0.6-1-1.2-1-1.7c0-0.9,0.7-1.4,2.2-1.7l19.6-2.6L73.1,48
		c0.5-1,1.1-1.5,1.9-1.5c0.8,0,1.4,0.5,1.9,1.5l8.8,16.3l19.6,2.6C106.8,67.2,107.5,67.7,107.5,68.6z"/>
</g>
</svg>
